<?xml version="1.0" encoding="UTF-8"?><svg id="Layer_1" xmlns="http://www.w3.org/2000/svg" viewBox="0 0 547.33 661.94"><defs><style>.cls-1{fill:#fff;}.cls-2{fill:#ffc0b8;}.cls-3{fill:#ff8983;}.cls-4{fill:#abb368;}</style></defs><path class="cls-3" d="M466.91,87.43c-20.9-14.35-45.29-23.6-71.27-25.9l1.09-.57s-90.85-23.53-145.9,52.21h0C98.19-13.32-92.84,187.89,50.82,343.1c108.44,117.16,163.04,155.74,190.11,166.98-39.75,24.64-111.89,75.51-111.89,120.34l221.3,.92c-33.83-43.25-25.91-82.29,3.58-119.16l159.87-178.77s100.71-146.15-46.88-245.98h0Zm-34.78,242.84l-161.55,161.55c-1.06,1.06-2.23,1.94-3.46,2.67l-.63,.63v-.26c-6.7,3.63-15.25,2.62-20.91-3.04L84.03,330.28C-40.83,205.42,133.22,31.37,258.08,156.22v-31.44h0v31.44c124.86-124.86,298.91,49.2,174.05,174.05h0Z"/><g><rect class="cls-1" x="89.62" y="353.07" width="3.36" height="12.62" transform="translate(-229.18 172.89) rotate(-45.55)"/><rect class="cls-1" x="155.68" y="417.86" width="3.36" height="12.62" transform="translate(-255.64 239.46) rotate(-45.55)"/><path class="cls-1" d="M187.06,450.94l-2.36,2.4,5.72,5.61s1.29,1.19,3.49,3.17l2.25-2.5c-2.15-1.94-3.43-3.11-3.43-3.11l-5.68-5.57h0Z"/><rect class="cls-1" x="122.65" y="385.47" width="3.36" height="12.62" transform="translate(-242.41 206.18) rotate(-45.55)"/><path class="cls-1" d="M256.11,497.66c-.3,.25-1.6,4.1-7.68,1.66l-2.05,2.74c4.67,2.31,10.58,1.74,13.56-4.4h-3.83Z"/><path class="cls-1" d="M219.45,484.26c3.58,2.96,6.91,5.63,9.9,7.94l2.06-2.66c-2.97-2.29-6.27-4.94-9.82-7.87l-2.14,2.59Z"/></g><path class="cls-1" d="M59.89,330.71c-4.26-5.39-8.24-10.88-11.84-16.31l4.2-2.79c3.53,5.31,7.43,10.69,11.6,15.97l-3.96,3.13Zm-28.27-46.11c-3.52-8.01-6.36-16.15-8.45-24.17l4.88-1.27c2.02,7.77,4.77,15.64,8.18,23.41l-4.62,2.03h0Zm-12.97-58.05v-.67c0-8.4,.83-16.78,2.46-24.92l4.95,.99c-1.57,7.81-2.36,15.86-2.36,23.93v.64l-5.05,.03Zm18.3-55.55l-4.46-2.36c3.38-6.41,6.13-10.02,6.46-10.45,2.69-3.69,5.47-7.27,8.26-10.64l3.89,3.21c-2.73,3.31-5.46,6.82-8.1,10.44l-.05,.07s-2.69,3.47-6,9.73h0Zm219.49-34.3c-.08-.06-7.75-6.53-20.46-14.11l2.58-4.33c13.1,7.81,20.82,14.32,21.14,14.6l-3.27,3.85h0Zm-182.09-9.51l-3.23-3.88c6.76-5.62,13.84-10.55,21.05-14.63l2.49,4.39c-6.95,3.94-13.78,8.69-20.31,14.12Zm131.8-19.19c-7.94-3.06-15.94-5.48-23.77-7.2l1.08-4.93c8.08,1.77,16.32,4.27,24.5,7.42l-1.81,4.71Zm-80.99-7.12l-1.2-4.9c8.25-2.02,16.83-3.17,25.48-3.43l.15,5.04c-8.3,.25-16.52,1.35-24.43,3.28h0Z"/><path class="cls-1" d="M468.19,330.78l-4.89-4.71,6.4-6.61c.92-1.19,8.59-11.25,16.45-26.79l6.02,3.11c-8.65,17.11-16.91,27.58-17.25,28.02l-.21,.24-6.52,6.74h0Zm36.63-66.43l-6.45-2.04c4.11-13.71,6.24-27.24,6.34-40.24l6.73,.18c-.1,13.62-2.33,27.79-6.62,42.09h0Zm-4.3-74.57c-3.58-12.91-9.53-25.31-17.68-36.86l5.48-3.79c8.6,12.2,14.89,25.31,18.68,38.98l-6.48,1.67Zm-39.93-61.3c-10.54-9.18-22.41-17.25-34.31-23.33l2.97-5.96c12.58,6.42,24.59,14.59,35.71,24.27l-4.37,5.02Zm-173.58-11.37l-3.91-5.54c12.29-8.49,24.9-15.15,37.49-19.8l2.45,6.3c-12.07,4.46-24.19,10.87-36.03,19.04Zm108.39-23.54c-13.47-3.26-27.17-4.24-40.66-2.91l-.8-6.68c4.13-.41,8.31-.62,12.45-.62,10.13,0,20.39,1.24,30.48,3.68l-1.47,6.52h0Z"/><g><polygon class="cls-1" points="249.37 630.92 248.88 629.54 242.7 630.92 249.37 630.92"/><polygon class="cls-1" points="240.7 630.92 242.7 630.92 248.88 629.54 240.7 630.92 240.7 630.92"/><polygon class="cls-1" points="448.25 346.5 405.13 394.45 411.63 400.35 454.75 352.4 448.25 346.5"/><path class="cls-1" d="M257.42,565.69c-17.13,30.34-18.34,50.66-17.53,60.07,.23,2.68,.61,4.39,.81,5.16l8.18-1.39s-.37-1.3-.58-3.77c-.58-6.83-.14-25.91,16.57-55.49l-7.44-4.58h0Z"/><polygon class="cls-1" points="340.45 466.37 346.95 472.27 390.07 424.32 383.57 418.42 340.45 466.37"/><path class="cls-1" d="M275.5,538.36l6.9,5.41c11.52-15.28,25.89-31.22,42.73-47.39l-6.12-6.29c-17.12,16.44-31.76,32.68-43.51,48.28h0Z"/></g><path class="cls-3" d="M193.15,276.03c5.78-6.08,13.9-9.44,22.28-9.23,12.24,.31,30.82,6.12,42.75,34.94,19.08,46.07-.62,98.3-.62,98.3,0,0-50.86-23-69.95-69.07-11.94-28.82-2.91-46.06,5.52-54.94h.02Z"/><path class="cls-3" d="M322,276.03c-5.78-6.08-13.9-9.44-22.28-9.23-12.24,.31-30.82,6.12-42.75,34.94-19.08,46.07,.62,98.3,.62,98.3,0,0,50.86-23,69.95-69.07,11.94-28.82,2.91-46.06-5.52-54.94h-.02Z"/><g><path class="cls-4" d="M306.77,418.69c3.8,1.3,6.73,4.23,8.03,8.03,1.9,5.55,2.3,15.09-9.13,26.52-18.28,18.28-45.91,20.49-45.91,20.49,0,0,2.21-27.63,20.49-45.91,11.43-11.43,20.98-11.03,26.52-9.13h0Z"/><path class="cls-4" d="M189.82,374.2c-5.38,1.84-9.53,5.99-11.37,11.37-2.69,7.86-3.26,21.38,12.93,37.57,25.89,25.89,65.02,29.02,65.02,29.02,0,0-3.13-39.13-29.02-65.02-16.19-16.19-29.71-15.63-37.57-12.93h.01Z"/><path class="cls-4" d="M249.67,367.99v126.88c5.23,2.83,11.59,2.83,16.82,0v-126.88h-16.82Z"/></g><path class="cls-2" d="M245.51,260.81c7.66-3.41,16.46-3.41,24.12,0,11.19,4.97,26.13,17.45,26.13,48.64,0,49.87-38.19,90.58-38.19,90.58,0,0-38.19-40.71-38.19-90.58,0-31.19,14.94-43.67,26.13-48.64h0Z"/></svg>