<?xml version="1.0" encoding="UTF-8"?><svg id="Layer_1" xmlns="http://www.w3.org/2000/svg" viewBox="0 0 1578.96 661.94"><defs><style>.cls-1{fill:#fff;}.cls-2{fill:#ffc0b8;}.cls-3{letter-spacing:.06em;}.cls-4{fill:#ff8983;}.cls-5{font-family:MarianeLusia, 'Mariane Lusia';font-size:562.87px;}.cls-5,.cls-6{fill:#abb368;}</style></defs><g><path class="cls-4" d="M466.91,87.43c-20.9-14.35-45.29-23.6-71.27-25.9l1.09-.57s-90.85-23.53-145.9,52.21h0C98.19-13.32-92.84,187.89,50.82,343.1c108.44,117.16,163.04,155.74,190.11,166.98-39.75,24.64-111.89,75.51-111.89,120.34l221.3,.92c-33.83-43.25-25.91-82.29,3.58-119.16l159.87-178.77s100.71-146.15-46.88-245.98Zm-34.78,242.84l-161.55,161.55c-1.06,1.06-2.23,1.94-3.46,2.67-.21,.21-.41,.41-.63,.63v-.26c-6.7,3.63-15.25,2.62-20.91-3.04L84.03,330.28C-40.83,205.42,133.22,31.37,258.08,156.22v-31.44s0,0,0,0v31.44c124.86-124.86,298.91,49.2,174.05,174.05Z"/><g><rect class="cls-1" x="89.63" y="353.06" width="3.36" height="12.62" transform="translate(-229.18 172.9) rotate(-45.55)"/><rect class="cls-1" x="155.68" y="417.85" width="3.36" height="12.62" transform="translate(-255.63 239.47) rotate(-45.55)"/><path class="cls-1" d="M187.06,450.94l-2.36,2.4,5.72,5.61s1.29,1.19,3.49,3.17l2.25-2.5c-2.15-1.94-3.43-3.11-3.43-3.11l-5.68-5.57Z"/><rect class="cls-1" x="122.66" y="385.46" width="3.36" height="12.62" transform="translate(-242.41 206.19) rotate(-45.55)"/><path class="cls-1" d="M256.11,497.66c-.3,.25-1.6,4.1-7.68,1.66l-2.05,2.74c4.67,2.31,10.58,1.74,13.56-4.4h-3.83Z"/><path class="cls-1" d="M219.45,484.26c3.58,2.96,6.91,5.63,9.9,7.94l2.06-2.66c-2.97-2.29-6.27-4.94-9.82-7.87l-2.14,2.59Z"/></g><path class="cls-1" d="M59.89,330.71c-4.26-5.39-8.24-10.88-11.84-16.31l4.2-2.79c3.53,5.31,7.43,10.69,11.6,15.97l-3.96,3.13Zm-28.27-46.11c-3.52-8.01-6.36-16.15-8.45-24.17l4.88-1.27c2.02,7.77,4.77,15.64,8.18,23.41l-4.62,2.03Zm-12.97-58.05v-.67c0-8.4,.83-16.78,2.46-24.92l4.95,.99c-1.57,7.81-2.36,15.86-2.36,23.93v.64s-5.05,.03-5.05,.03Zm18.3-55.55l-4.46-2.36c3.38-6.41,6.13-10.02,6.46-10.45,2.69-3.69,5.47-7.27,8.26-10.64l3.89,3.21c-2.73,3.31-5.46,6.82-8.1,10.44l-.05,.07s-2.69,3.47-6,9.73Zm219.49-34.3c-.08-.06-7.75-6.53-20.46-14.11l2.58-4.33c13.1,7.81,20.82,14.32,21.14,14.6l-3.27,3.85Zm-182.09-9.5l-3.23-3.88c6.76-5.62,13.84-10.55,21.05-14.63l2.49,4.39c-6.95,3.94-13.78,8.69-20.31,14.12Zm131.8-19.19c-7.94-3.06-15.94-5.48-23.77-7.2l1.08-4.93c8.08,1.77,16.32,4.27,24.5,7.42l-1.81,4.71Zm-80.99-7.12l-1.2-4.9c8.25-2.02,16.83-3.17,25.48-3.43l.15,5.04c-8.3,.25-16.52,1.35-24.43,3.28Z"/><path class="cls-1" d="M468.19,330.78l-4.89-4.71,6.4-6.61c.92-1.19,8.59-11.25,16.45-26.79l6.02,3.11c-8.65,17.11-16.91,27.58-17.25,28.02l-.21,.24-6.52,6.74Zm36.63-66.43l-6.45-2.04c4.11-13.71,6.24-27.24,6.34-40.24l6.73,.18c-.1,13.62-2.33,27.79-6.62,42.09Zm-4.3-74.58c-3.58-12.91-9.53-25.31-17.68-36.86l5.48-3.79c8.6,12.2,14.89,25.31,18.68,38.98l-6.48,1.67Zm-39.93-61.3c-10.54-9.18-22.41-17.25-34.31-23.33l2.97-5.96c12.58,6.42,24.59,14.59,35.71,24.27l-4.37,5.02Zm-173.58-11.37l-3.91-5.54c12.29-8.49,24.9-15.15,37.49-19.8l2.45,6.3c-12.07,4.46-24.19,10.87-36.03,19.04Zm108.39-23.54c-13.47-3.26-27.17-4.24-40.66-2.91l-.8-6.68c4.13-.41,8.31-.62,12.45-.62,10.13,0,20.39,1.24,30.48,3.68l-1.47,6.52Z"/><g><polygon class="cls-1" points="240.7 630.92 240.7 630.92 240.7 630.92 240.7 630.92"/><polygon class="cls-1" points="249.37 630.92 248.88 629.54 242.7 630.92 249.37 630.92"/><polygon class="cls-1" points="240.7 630.92 242.7 630.92 248.88 629.54 240.7 630.92 240.7 630.92"/><polygon class="cls-1" points="448.25 346.5 405.13 394.45 411.63 400.35 454.75 352.4 448.25 346.5"/><path class="cls-1" d="M257.42,565.69c-17.13,30.34-18.34,50.66-17.53,60.07,.23,2.68,.61,4.39,.81,5.16l8.18-1.39s-.37-1.3-.58-3.77c-.58-6.83-.14-25.91,16.57-55.49l-7.44-4.58Z"/><polygon class="cls-1" points="340.45 466.37 346.95 472.27 390.07 424.32 383.57 418.42 340.45 466.37"/><path class="cls-1" d="M275.5,538.36l6.9,5.41c11.52-15.28,25.89-31.22,42.73-47.39l-6.12-6.29c-17.12,16.44-31.76,32.68-43.51,48.28Z"/></g><path class="cls-4" d="M193.15,276.03c5.78-6.08,13.9-9.44,22.28-9.23,12.24,.31,30.82,6.12,42.75,34.94,19.08,46.07-.62,98.3-.62,98.3,0,0-50.86-23-69.95-69.07-11.94-28.82-2.91-46.06,5.52-54.94Z"/><path class="cls-4" d="M322,276.03c-5.78-6.08-13.9-9.44-22.28-9.23-12.24,.31-30.82,6.12-42.75,34.94-19.08,46.07,.62,98.3,.62,98.3,0,0,50.86-23,69.95-69.07,11.94-28.82,2.91-46.06-5.52-54.94Z"/><g><path class="cls-6" d="M306.77,418.69c3.8,1.3,6.73,4.23,8.03,8.03,1.9,5.55,2.3,15.09-9.13,26.52-18.28,18.28-45.91,20.49-45.91,20.49,0,0,2.21-27.63,20.49-45.91,11.43-11.43,20.98-11.03,26.52-9.13Z"/><path class="cls-6" d="M189.82,374.2c-5.38,1.84-9.53,5.99-11.37,11.37-2.69,7.86-3.26,21.38,12.93,37.57,25.89,25.89,65.02,29.02,65.02,29.02,0,0-3.13-39.13-29.02-65.02-16.19-16.19-29.71-15.63-37.57-12.93Z"/><path class="cls-6" d="M249.67,367.99v126.88c5.23,2.83,11.59,2.83,16.82,0v-126.88h-16.82Z"/></g><path class="cls-2" d="M245.51,260.81c7.66-3.41,16.46-3.41,24.12,0,11.19,4.97,26.13,17.45,26.13,48.64,0,49.87-38.19,90.58-38.19,90.58,0,0-38.19-40.71-38.19-90.58,0-31.19,14.94-43.67,26.13-48.64Z"/></g><text class="cls-5" transform="translate(589.46 478.44)"><tspan class="cls-3" x="0" y="0">V</tspan><tspan x="392.31" y="0">ida</tspan></text><g><path class="cls-4" d="M425.24,575.31c-5.19,0-9.16,1.94-11.9,5.82-2.74,3.88-4.12,9.19-4.12,15.93s1.27,12.07,3.8,15.79c2.54,3.73,6.61,5.59,12.21,5.59,2.62,0,5.23-.3,7.83-.9,2.59-.6,5.41-1.43,8.46-2.51v11.36c-2.8,1.13-5.58,1.97-8.32,2.51-2.74,.54-5.82,.81-9.22,.81-6.56,0-11.98-1.36-16.24-4.07-4.27-2.71-7.41-6.53-9.44-11.45-2.03-4.92-3.04-10.66-3.04-17.23s1.16-12.14,3.49-17.09c2.33-4.95,5.71-8.83,10.16-11.63,4.44-2.8,9.89-4.21,16.33-4.21,3.16,0,6.34,.4,9.53,1.21,3.19,.81,6.25,1.89,9.17,3.27l-4.38,11.01c-2.39-1.13-4.79-2.12-7.2-2.95-2.42-.83-4.79-1.25-7.11-1.25Z"/><path class="cls-4" d="M481.34,579.07c.66,0,1.43,.03,2.33,.09,.89,.06,1.61,.15,2.15,.27l-.98,12.53c-.42-.12-1.03-.22-1.83-.31-.81-.09-1.51-.13-2.1-.13-2.27,0-4.44,.4-6.53,1.21-2.09,.81-3.77,2.1-5.06,3.89-1.28,1.79-1.92,4.24-1.92,7.34v24.88h-13.33v-48.86h10.11l1.97,8.23h.63c1.43-2.51,3.4-4.65,5.91-6.44,2.51-1.79,5.4-2.68,8.68-2.68Z"/><path class="cls-4" d="M513.02,579.07c6.74,0,12.08,1.92,16.02,5.77,3.94,3.85,5.91,9.32,5.91,16.42v6.44h-31.5c.12,3.76,1.24,6.71,3.36,8.86,2.12,2.15,5.06,3.22,8.81,3.22,3.16,0,6.02-.31,8.59-.94,2.56-.63,5.22-1.6,7.96-2.91v10.29c-2.39,1.19-4.91,2.07-7.56,2.64-2.65,.57-5.86,.85-9.62,.85-4.89,0-9.22-.91-12.98-2.73-3.76-1.82-6.71-4.58-8.86-8.28-2.15-3.7-3.22-8.35-3.22-13.96s.97-10.48,2.91-14.27c1.94-3.79,4.64-6.64,8.1-8.55,3.46-1.91,7.49-2.86,12.08-2.86Zm.09,9.49c-2.57,0-4.7,.84-6.4,2.51-1.7,1.67-2.7,4.27-3,7.79h18.7c-.06-2.98-.84-5.44-2.33-7.38-1.49-1.94-3.82-2.91-6.98-2.91Z"/><path class="cls-4" d="M565.81,578.98c6.56,0,11.59,1.42,15.08,4.25,3.49,2.83,5.23,7.17,5.23,13.02v32.57h-9.31l-2.6-6.62h-.36c-2.09,2.63-4.29,4.53-6.62,5.73-2.33,1.19-5.52,1.79-9.57,1.79-4.36,0-7.96-1.27-10.83-3.8-2.86-2.53-4.29-6.43-4.29-11.68s1.82-9.02,5.46-11.5c3.64-2.47,9.1-3.83,16.38-4.07l8.5-.27v-2.15c0-2.56-.67-4.44-2.01-5.64-1.34-1.19-3.21-1.79-5.59-1.79s-4.71,.34-6.98,1.03c-2.27,.69-4.53,1.54-6.8,2.55l-4.38-9.04c2.62-1.37,5.53-2.45,8.72-3.22,3.19-.77,6.52-1.16,9.98-1.16Zm1.88,27.38c-4.29,.12-7.28,.9-8.95,2.33-1.67,1.43-2.51,3.31-2.51,5.64,0,2.03,.6,3.48,1.79,4.34,1.19,.87,2.74,1.3,4.65,1.3,2.86,0,5.28-.85,7.25-2.55s2.95-4.1,2.95-7.2v-4.03l-5.19,.18Z"/><path class="cls-4" d="M620.4,619.07c1.49,0,2.92-.15,4.3-.45,1.37-.3,2.74-.66,4.12-1.07v9.93c-1.43,.6-3.21,1.12-5.32,1.57-2.12,.45-4.43,.67-6.94,.67-2.92,0-5.53-.48-7.83-1.43-2.3-.95-4.12-2.61-5.46-4.97-1.34-2.36-2.01-5.62-2.01-9.8v-23.53h-6.35v-5.64l7.34-4.47,3.85-10.29h8.5v10.38h13.69v10.02h-13.69v23.53c0,1.85,.54,3.24,1.61,4.16,1.07,.93,2.47,1.39,4.21,1.39Z"/><path class="cls-4" d="M645.36,560.81c1.97,0,3.67,.46,5.1,1.39,1.43,.93,2.15,2.64,2.15,5.15s-.72,4.15-2.15,5.1c-1.43,.95-3.13,1.43-5.1,1.43s-3.74-.48-5.15-1.43c-1.4-.95-2.1-2.65-2.1-5.1s.7-4.22,2.1-5.15c1.4-.92,3.12-1.39,5.15-1.39Zm6.62,19.15v48.86h-13.33v-48.86h13.33Z"/><path class="cls-4" d="M686.07,579.07c6.74,0,12.08,1.92,16.02,5.77,3.94,3.85,5.91,9.32,5.91,16.42v6.44h-31.5c.12,3.76,1.24,6.71,3.36,8.86,2.12,2.15,5.06,3.22,8.81,3.22,3.16,0,6.02-.31,8.59-.94,2.56-.63,5.22-1.6,7.96-2.91v10.29c-2.39,1.19-4.91,2.07-7.56,2.64-2.65,.57-5.86,.85-9.62,.85-4.89,0-9.22-.91-12.98-2.73-3.76-1.82-6.71-4.58-8.86-8.28-2.15-3.7-3.22-8.35-3.22-13.96s.97-10.48,2.91-14.27c1.94-3.79,4.64-6.64,8.1-8.55,3.46-1.91,7.49-2.86,12.08-2.86Zm.09,9.49c-2.57,0-4.7,.84-6.4,2.51-1.7,1.67-2.7,4.27-3,7.79h18.7c-.06-2.98-.84-5.44-2.33-7.38-1.49-1.94-3.82-2.91-6.98-2.91Z"/><path class="cls-4" d="M745.85,589.99h-11.54v38.84h-13.33v-38.84h-7.34v-6.44l7.34-3.58v-3.58c0-4.17,.7-7.41,2.1-9.71,1.4-2.3,3.4-3.92,6-4.88,2.59-.95,5.65-1.43,9.17-1.43,2.62,0,5,.21,7.11,.63,2.12,.42,3.83,.9,5.15,1.43l-3.4,9.75c-1.02-.3-2.12-.58-3.31-.85-1.19-.27-2.57-.4-4.12-.4-1.85,0-3.21,.57-4.07,1.7-.87,1.13-1.3,2.57-1.3,4.3v3.04h11.54v10.02Z"/><path class="cls-4" d="M804.91,575.31c-5.19,0-9.16,1.94-11.9,5.82-2.74,3.88-4.12,9.19-4.12,15.93s1.27,12.07,3.8,15.79c2.54,3.73,6.61,5.59,12.21,5.59,2.62,0,5.23-.3,7.83-.9,2.59-.6,5.41-1.43,8.46-2.51v11.36c-2.8,1.13-5.58,1.97-8.32,2.51-2.74,.54-5.82,.81-9.22,.81-6.56,0-11.98-1.36-16.24-4.07-4.27-2.71-7.41-6.53-9.44-11.45-2.03-4.92-3.04-10.66-3.04-17.23s1.16-12.14,3.49-17.09c2.33-4.95,5.71-8.83,10.16-11.63,4.44-2.8,9.89-4.21,16.33-4.21,3.16,0,6.34,.4,9.53,1.21,3.19,.81,6.25,1.89,9.17,3.27l-4.38,11.01c-2.39-1.13-4.79-2.12-7.2-2.95-2.42-.83-4.79-1.25-7.11-1.25Z"/><path class="cls-4" d="M847.05,574.68c0,2.39-.08,4.68-.22,6.89-.15,2.21-.28,3.76-.4,4.65h.72c1.55-2.51,3.55-4.32,6-5.46,2.45-1.13,5.16-1.7,8.14-1.7,5.31,0,9.56,1.42,12.75,4.25,3.19,2.83,4.79,7.38,4.79,13.65v31.86h-13.33v-28.54c0-7.04-2.63-10.56-7.87-10.56-4,0-6.76,1.39-8.28,4.16-1.52,2.77-2.28,6.76-2.28,11.95v23h-13.33v-68.01h13.33v13.87Z"/><path class="cls-4" d="M919.8,579.07c.66,0,1.43,.03,2.33,.09,.89,.06,1.61,.15,2.15,.27l-.98,12.53c-.42-.12-1.03-.22-1.83-.31-.81-.09-1.51-.13-2.1-.13-2.27,0-4.44,.4-6.53,1.21-2.09,.81-3.77,2.1-5.06,3.89-1.28,1.79-1.92,4.24-1.92,7.34v24.88h-13.33v-48.86h10.11l1.97,8.23h.63c1.43-2.51,3.4-4.65,5.91-6.44,2.51-1.79,5.4-2.68,8.68-2.68Z"/><path class="cls-4" d="M939.84,560.81c1.97,0,3.67,.46,5.1,1.39,1.43,.93,2.15,2.64,2.15,5.15s-.72,4.15-2.15,5.1c-1.43,.95-3.13,1.43-5.1,1.43s-3.74-.48-5.15-1.43c-1.4-.95-2.1-2.65-2.1-5.1s.7-4.22,2.1-5.15c1.4-.92,3.12-1.39,5.15-1.39Zm6.62,19.15v48.86h-13.33v-48.86h13.33Z"/><path class="cls-4" d="M994.52,614.33c0,4.95-1.75,8.76-5.23,11.41-3.49,2.66-8.7,3.98-15.61,3.98-3.4,0-6.32-.22-8.77-.67-2.45-.45-4.89-1.18-7.34-2.19v-11.01c2.62,1.19,5.46,2.18,8.5,2.95,3.04,.78,5.73,1.16,8.05,1.16,2.62,0,4.49-.39,5.59-1.16,1.1-.77,1.66-1.79,1.66-3.04,0-.83-.22-1.58-.67-2.24-.45-.66-1.42-1.4-2.91-2.24-1.49-.83-3.82-1.91-6.98-3.22-3.04-1.31-5.55-2.61-7.52-3.89-1.97-1.28-3.43-2.83-4.38-4.65-.96-1.82-1.43-4.1-1.43-6.85,0-4.53,1.76-7.93,5.28-10.2,3.52-2.27,8.2-3.4,14.05-3.4,3.04,0,5.94,.3,8.68,.89,2.74,.6,5.58,1.58,8.5,2.95l-4.03,9.57c-2.39-1.01-4.65-1.86-6.8-2.55-2.15-.69-4.33-1.03-6.53-1.03-3.94,0-5.91,1.07-5.91,3.22,0,.78,.25,1.48,.76,2.1,.51,.63,1.49,1.3,2.95,2.01,1.46,.72,3.62,1.67,6.49,2.86,2.8,1.13,5.22,2.31,7.25,3.53,2.03,1.22,3.59,2.74,4.7,4.56,1.1,1.82,1.66,4.19,1.66,7.11Z"/><path class="cls-4" d="M1025.48,619.07c1.49,0,2.92-.15,4.3-.45,1.37-.3,2.74-.66,4.12-1.07v9.93c-1.43,.6-3.21,1.12-5.32,1.57-2.12,.45-4.43,.67-6.94,.67-2.92,0-5.53-.48-7.83-1.43-2.3-.95-4.12-2.61-5.46-4.97-1.34-2.36-2.01-5.62-2.01-9.8v-23.53h-6.35v-5.64l7.34-4.47,3.85-10.29h8.5v10.38h13.69v10.02h-13.69v23.53c0,1.85,.54,3.24,1.61,4.16,1.07,.93,2.47,1.39,4.21,1.39Z"/><path class="cls-4" d="M1063.87,579.07c6.74,0,12.08,1.92,16.02,5.77,3.94,3.85,5.91,9.32,5.91,16.42v6.44h-31.5c.12,3.76,1.24,6.71,3.36,8.86,2.12,2.15,5.06,3.22,8.81,3.22,3.16,0,6.02-.31,8.59-.94,2.56-.63,5.22-1.6,7.96-2.91v10.29c-2.39,1.19-4.91,2.07-7.56,2.64-2.65,.57-5.86,.85-9.62,.85-4.89,0-9.22-.91-12.98-2.73-3.76-1.82-6.71-4.58-8.86-8.28-2.15-3.7-3.22-8.35-3.22-13.96s.97-10.48,2.91-14.27c1.94-3.79,4.64-6.64,8.1-8.55,3.46-1.91,7.49-2.86,12.08-2.86Zm.09,9.49c-2.57,0-4.7,.84-6.4,2.51-1.7,1.67-2.7,4.27-3,7.79h18.7c-.06-2.98-.84-5.44-2.33-7.38-1.49-1.94-3.82-2.91-6.98-2.91Z"/><path class="cls-4" d="M1124.36,579.07c5.25,0,9.45,1.42,12.62,4.25,3.16,2.83,4.74,7.38,4.74,13.65v31.86h-13.33v-28.54c0-3.52-.63-6.16-1.88-7.92-1.25-1.76-3.25-2.64-6-2.64-4.06,0-6.83,1.39-8.32,4.16-1.49,2.77-2.24,6.76-2.24,11.95v23h-13.33v-48.86h10.2l1.79,6.26h.72c1.55-2.51,3.68-4.32,6.4-5.46,2.71-1.13,5.59-1.7,8.63-1.7Z"/><path class="cls-4" d="M1206.86,575.31c-5.19,0-9.16,1.94-11.9,5.82-2.74,3.88-4.12,9.19-4.12,15.93s1.27,12.07,3.8,15.79c2.54,3.73,6.61,5.59,12.21,5.59,2.62,0,5.23-.3,7.83-.9,2.59-.6,5.41-1.43,8.46-2.51v11.36c-2.8,1.13-5.58,1.97-8.32,2.51-2.74,.54-5.82,.81-9.22,.81-6.56,0-11.98-1.36-16.24-4.07-4.27-2.71-7.41-6.53-9.44-11.45-2.03-4.92-3.04-10.66-3.04-17.23s1.16-12.14,3.49-17.09c2.33-4.95,5.71-8.83,10.16-11.63,4.44-2.8,9.89-4.21,16.33-4.21,3.16,0,6.34,.4,9.53,1.21,3.19,.81,6.25,1.89,9.17,3.27l-4.38,11.01c-2.39-1.13-4.79-2.12-7.2-2.95-2.42-.83-4.79-1.25-7.11-1.25Z"/><path class="cls-4" d="M1280.05,604.3c0,8.11-2.13,14.38-6.4,18.79-4.27,4.42-10.07,6.62-17.4,6.62-4.53,0-8.58-.98-12.12-2.95-3.55-1.97-6.34-4.85-8.37-8.64-2.03-3.79-3.04-8.4-3.04-13.83,0-8.11,2.12-14.35,6.35-18.7,4.24-4.35,10.05-6.53,17.45-6.53,4.59,0,8.65,.98,12.17,2.95,3.52,1.97,6.29,4.82,8.32,8.55,2.03,3.73,3.04,8.31,3.04,13.74Zm-33.74,0c0,4.83,.79,8.49,2.37,10.96,1.58,2.48,4.16,3.71,7.74,3.71s6.07-1.24,7.65-3.71c1.58-2.47,2.37-6.13,2.37-10.96s-.79-8.46-2.37-10.87c-1.58-2.42-4.16-3.62-7.74-3.62s-6.07,1.21-7.65,3.62c-1.58,2.42-2.37,6.04-2.37,10.87Z"/><path class="cls-4" d="M1311.1,578.98c6.56,0,11.59,1.42,15.08,4.25,3.49,2.83,5.23,7.17,5.23,13.02v32.57h-9.31l-2.6-6.62h-.36c-2.09,2.63-4.29,4.53-6.62,5.73-2.33,1.19-5.52,1.79-9.57,1.79-4.36,0-7.96-1.27-10.83-3.8-2.86-2.53-4.29-6.43-4.29-11.68s1.82-9.02,5.46-11.5c3.64-2.47,9.1-3.83,16.38-4.07l8.5-.27v-2.15c0-2.56-.67-4.44-2.01-5.64-1.34-1.19-3.21-1.79-5.59-1.79s-4.71,.34-6.98,1.03c-2.27,.69-4.53,1.54-6.8,2.55l-4.38-9.04c2.62-1.37,5.53-2.45,8.72-3.22,3.19-.77,6.52-1.16,9.98-1.16Zm1.88,27.38c-4.29,.12-7.28,.9-8.95,2.33-1.67,1.43-2.51,3.31-2.51,5.64,0,2.03,.6,3.48,1.79,4.34,1.19,.87,2.74,1.3,4.65,1.3,2.86,0,5.28-.85,7.25-2.55s2.95-4.1,2.95-7.2v-4.03l-5.19,.18Z"/><path class="cls-4" d="M1364.97,629.72c-7.28,0-12.9-2.01-16.87-6.04-3.97-4.03-5.95-10.36-5.95-19.01,0-5.96,1.01-10.83,3.04-14.59,2.03-3.76,4.85-6.53,8.46-8.32,3.61-1.79,7.77-2.68,12.48-2.68,3.34,0,6.25,.33,8.72,.98,2.47,.66,4.64,1.43,6.49,2.33l-3.94,10.29c-2.09-.83-4.04-1.52-5.86-2.06-1.82-.54-3.62-.81-5.41-.81-6.92,0-10.38,4.92-10.38,14.76,0,4.89,.91,8.5,2.73,10.83,1.82,2.33,4.37,3.49,7.65,3.49,2.8,0,5.28-.37,7.43-1.12,2.15-.75,4.24-1.77,6.26-3.09v11.36c-2.03,1.31-4.16,2.25-6.4,2.82-2.24,.57-5.06,.85-8.46,.85Z"/><path class="cls-4" d="M1404.43,574.68c0,2.39-.08,4.68-.22,6.89-.15,2.21-.28,3.76-.4,4.65h.72c1.55-2.51,3.55-4.32,6-5.46,2.45-1.13,5.16-1.7,8.14-1.7,5.31,0,9.56,1.42,12.75,4.25,3.19,2.83,4.79,7.38,4.79,13.65v31.86h-13.33v-28.54c0-7.04-2.63-10.56-7.87-10.56-4,0-6.76,1.39-8.28,4.16-1.52,2.77-2.28,6.76-2.28,11.95v23h-13.33v-68.01h13.33v13.87Z"/><path class="cls-4" d="M1456.6,560.81c1.97,0,3.67,.46,5.1,1.39,1.43,.93,2.15,2.64,2.15,5.15s-.72,4.15-2.15,5.1c-1.43,.95-3.13,1.43-5.1,1.43s-3.74-.48-5.15-1.43c-1.4-.95-2.1-2.65-2.1-5.1s.7-4.22,2.1-5.15c1.4-.92,3.12-1.39,5.15-1.39Zm6.62,19.15v48.86h-13.33v-48.86h13.33Z"/><path class="cls-4" d="M1504.92,579.07c5.25,0,9.45,1.42,12.62,4.25,3.16,2.83,4.74,7.38,4.74,13.65v31.86h-13.33v-28.54c0-3.52-.63-6.16-1.88-7.92-1.25-1.76-3.25-2.64-6-2.64-4.06,0-6.83,1.39-8.32,4.16-1.49,2.77-2.24,6.76-2.24,11.95v23h-13.33v-48.86h10.2l1.79,6.26h.72c1.55-2.51,3.68-4.32,6.4-5.46,2.71-1.13,5.59-1.7,8.63-1.7Z"/><path class="cls-4" d="M1551.81,579.07c6.02,0,10.74,2.39,14.14,7.16h.36l1.07-6.26h11.27v48.95c0,6.98-2.06,12.29-6.17,15.93-4.12,3.64-10.2,5.46-18.25,5.46-3.46,0-6.67-.21-9.62-.63-2.95-.42-5.83-1.16-8.64-2.24v-10.65c6.02,2.51,12.38,3.76,19.06,3.76s10.29-3.7,10.29-11.1v-.98c0-1.01,.04-2.06,.13-3.13s.16-2.03,.22-2.86h-.36c-1.67,2.57-3.67,4.42-6,5.55-2.33,1.13-4.95,1.7-7.87,1.7-5.79,0-10.31-2.22-13.56-6.67-3.25-4.44-4.88-10.63-4.88-18.57s1.67-14.23,5.01-18.7c3.34-4.47,7.93-6.71,13.78-6.71Zm4.21,10.83c-6.26,0-9.4,4.92-9.4,14.77s3.19,14.59,9.57,14.59c3.4,0,5.92-.97,7.56-2.91,1.64-1.94,2.46-5.32,2.46-10.16v-1.61c0-5.25-.81-9.01-2.42-11.27-1.61-2.27-4.21-3.4-7.79-3.4Z"/></g></svg>