<?xml version="1.0" encoding="UTF-8"?><svg id="Layer_1" xmlns="http://www.w3.org/2000/svg" xmlns:xlink="http://www.w3.org/1999/xlink" viewBox="0 0 1672.19 661.94"><defs><style>.cls-1{fill:url(#linear-gradient);}.cls-1,.cls-2,.cls-3,.cls-4,.cls-5,.cls-6{stroke-width:0px;}.cls-2{fill:#9cc477;}.cls-3{fill:none;}.cls-4{fill:#fd8eb6;}.cls-5{fill:#fff;}.cls-6{fill:#fec0d6;}</style><linearGradient id="linear-gradient" x1="338.19" y1="662.4" x2="338.19" y2="57.5" gradientUnits="userSpaceOnUse"><stop offset="0" stop-color="#fff"/><stop offset="0" stop-color="#fff"/><stop offset=".1" stop-color="#fff"/><stop offset=".15" stop-color="#fee3ed"/><stop offset=".21" stop-color="#fec9dc"/><stop offset=".28" stop-color="#fdb3ce"/><stop offset=".36" stop-color="#fda2c3"/><stop offset=".46" stop-color="#fd96bb"/><stop offset=".6" stop-color="#fd8fb7"/><stop offset="1" stop-color="#fd8eb6"/></linearGradient></defs><path class="cls-3" d="m273.67,488.75c-1.5,1.5-2.93,2.88-4.31,4.18.42-.34.83-.7,1.22-1.1l3.08-3.08Z"/><path class="cls-3" d="m432.14,330.28c124.86-124.86-49.2-298.91-174.05-174.05h0C133.22,31.37-40.83,205.42,84.03,330.28l161.55,161.55c5.66,5.66,14.21,6.67,20.91,3.04h0s.63-.37.63-.37c.77-.46,1.52-.99,2.23-1.57,1.38-1.3,2.81-2.68,4.31-4.18l158.47-158.47Z"/><path class="cls-3" d="m84.03,330.28l161.55,161.55c5.66,5.66,14.21,6.67,20.91,3.04h0s.63-.37.63-.37c.77-.46,1.52-.99,2.23-1.57.42-.34.83-.7,1.22-1.1l3.08-3.08,158.47-158.47c124.86-124.86-49.2-298.91-174.05-174.05h0C133.22,31.37-40.83,205.42,84.03,330.28Z"/><path class="cls-1" d="m466.91,87.43c-20.9-14.35-45.29-23.6-71.27-25.9l1.09-.57s-90.85-23.53-145.9,52.21l7.24,43.06h0c124.86-124.86,298.91,49.2,174.05,174.05l-158.47,158.47s0,0,0,0c0,0,0,0,0,0l-3.08,3.08c-.39.39-.8.75-1.22,1.1-17.37,16.37-25.68,17.74-28.78,17.37-39.82,24.72-111.54,106.48-111.54,151.18l221.3.92c-33.83-43.25-25.91-113.35,3.58-150.22l159.87-178.77s100.71-146.15-46.88-245.98Z"/><path class="cls-4" d="m269.36,492.93c-.71.58-1.46,1.11-2.23,1.57l-.63.37h0c-6.7,3.63-15.25,2.62-20.91-3.04l-161.55-161.55C-40.83,205.42,133.22,31.37,258.08,156.22l-7.24-43.06h0C98.19-13.32-92.84,187.89,50.82,343.1c108.44,117.16,163.04,155.74,190.11,166.98-.11.07-.23.15-.35.22,3.1.37,11.41-1,28.78-17.37Z"/><rect class="cls-5" x="89.63" y="353.06" width="3.36" height="12.62" transform="translate(-229.18 172.9) rotate(-45.55)"/><rect class="cls-5" x="155.68" y="417.85" width="3.36" height="12.62" transform="translate(-255.63 239.47) rotate(-45.55)"/><path class="cls-5" d="m187.06,450.94l-2.36,2.4,5.72,5.61s1.29,1.19,3.49,3.17l2.25-2.5c-2.15-1.94-3.43-3.11-3.43-3.11l-5.68-5.57Z"/><rect class="cls-5" x="122.66" y="385.46" width="3.36" height="12.62" transform="translate(-242.41 206.19) rotate(-45.55)"/><path class="cls-5" d="m256.11,497.66c-.3.25-1.6,4.1-7.68,1.66l-2.05,2.74c4.67,2.31,10.58,1.74,13.56-4.4h-3.83Z"/><path class="cls-5" d="m219.45,484.26c3.58,2.96,6.91,5.63,9.9,7.94l2.06-2.66c-2.97-2.29-6.27-4.94-9.82-7.87l-2.14,2.59Z"/><path class="cls-5" d="m59.89,330.71c-4.26-5.39-8.24-10.88-11.84-16.31l4.2-2.79c3.53,5.31,7.43,10.69,11.6,15.97l-3.96,3.13Zm-28.27-46.11c-3.52-8.01-6.36-16.15-8.45-24.17l4.88-1.27c2.02,7.77,4.77,15.64,8.18,23.41l-4.62,2.03Zm-12.97-58.05v-.67c0-8.4.83-16.78,2.46-24.92l4.95.99c-1.57,7.81-2.36,15.86-2.36,23.93v.64s-5.05.03-5.05.03Zm18.3-55.55l-4.46-2.36c3.38-6.41,6.13-10.02,6.46-10.45,2.69-3.69,5.47-7.27,8.26-10.64l3.89,3.21c-2.73,3.31-5.46,6.82-8.1,10.44l-.05.07s-2.69,3.47-6,9.73Zm219.49-34.3c-.08-.06-7.75-6.53-20.46-14.11l2.58-4.33c13.1,7.81,20.82,14.32,21.14,14.6l-3.27,3.85Zm-182.09-9.5l-3.23-3.88c6.76-5.62,13.84-10.55,21.05-14.63l2.49,4.39c-6.95,3.94-13.78,8.69-20.31,14.12Zm131.8-19.19c-7.94-3.06-15.94-5.48-23.77-7.2l1.08-4.93c8.08,1.77,16.32,4.27,24.5,7.42l-1.81,4.71Zm-80.99-7.12l-1.2-4.9c8.25-2.02,16.83-3.17,25.48-3.43l.15,5.04c-8.3.25-16.52,1.35-24.43,3.28Z"/><path class="cls-5" d="m468.19,330.78l-4.89-4.71,6.4-6.61c.92-1.19,8.59-11.25,16.45-26.79l6.02,3.11c-8.65,17.11-16.91,27.58-17.25,28.02l-.21.24-6.52,6.74Zm36.63-66.43l-6.45-2.04c4.11-13.71,6.24-27.24,6.34-40.24l6.73.18c-.1,13.62-2.33,27.79-6.62,42.09Zm-4.3-74.58c-3.58-12.91-9.53-25.31-17.68-36.86l5.48-3.79c8.6,12.2,14.89,25.31,18.68,38.98l-6.48,1.67Zm-39.93-61.3c-10.54-9.18-22.41-17.25-34.31-23.33l2.97-5.96c12.58,6.42,24.59,14.59,35.71,24.27l-4.37,5.02Zm-173.58-11.37l-3.91-5.54c12.29-8.49,24.9-15.15,37.49-19.8l2.45,6.3c-12.07,4.46-24.19,10.87-36.03,19.04Zm108.39-23.54c-13.47-3.26-27.17-4.24-40.66-2.91l-.8-6.68c4.13-.41,8.31-.62,12.45-.62,10.13,0,20.39,1.24,30.48,3.68l-1.47,6.52Z"/><polygon class="cls-5" points="240.7 630.92 240.7 630.92 240.7 630.92 240.7 630.92"/><polygon class="cls-5" points="249.37 630.92 248.88 629.54 242.7 630.92 249.37 630.92"/><polygon class="cls-5" points="240.7 630.92 242.7 630.92 248.88 629.54 240.7 630.92 240.7 630.92"/><polygon class="cls-5" points="448.25 346.5 405.13 394.45 411.63 400.35 454.75 352.4 448.25 346.5"/><path class="cls-5" d="m257.42,565.69c-17.13,30.34-18.34,50.66-17.53,60.07.23,2.68.61,4.39.81,5.16l8.18-1.39s-.37-1.3-.58-3.77c-.58-6.83-.14-25.91,16.57-55.49l-7.44-4.58Z"/><polygon class="cls-5" points="340.45 466.37 346.95 472.27 390.07 424.32 383.57 418.42 340.45 466.37"/><path class="cls-5" d="m275.5,538.36l6.9,5.41c11.52-15.28,25.89-31.22,42.73-47.39l-6.12-6.29c-17.12,16.44-31.76,32.68-43.51,48.28Z"/><path class="cls-4" d="m193.15,276.03c5.78-6.08,13.9-9.44,22.28-9.23,12.24.31,30.82,6.12,42.75,34.94,19.08,46.07-.62,98.3-.62,98.3,0,0-50.86-23-69.95-69.07-11.94-28.82-2.91-46.06,5.52-54.94Z"/><path class="cls-4" d="m322,276.03c-5.78-6.08-13.9-9.44-22.28-9.23-12.24.31-30.82,6.12-42.75,34.94-19.08,46.07.62,98.3.62,98.3,0,0,50.86-23,69.95-69.07,11.94-28.82,2.91-46.06-5.52-54.94Z"/><path class="cls-2" d="m306.77,418.69c3.8,1.3,6.73,4.23,8.03,8.03,1.9,5.55,2.3,15.09-9.13,26.52-18.28,18.28-45.91,20.49-45.91,20.49,0,0,2.21-27.63,20.49-45.91,11.43-11.43,20.98-11.03,26.52-9.13Z"/><path class="cls-2" d="m189.82,374.2c-5.38,1.84-9.53,5.99-11.37,11.37-2.69,7.86-3.26,21.38,12.93,37.57,25.89,25.89,65.02,29.02,65.02,29.02,0,0-3.13-39.13-29.02-65.02-16.19-16.19-29.71-15.63-37.57-12.93Z"/><path class="cls-2" d="m249.67,367.99v126.88c5.23,2.83,11.59,2.83,16.82,0v-126.88h-16.82Z"/><path class="cls-6" d="m245.51,260.81c7.66-3.41,16.46-3.41,24.12,0,11.19,4.97,26.13,17.45,26.13,48.64,0,49.87-38.19,90.58-38.19,90.58,0,0-38.19-40.71-38.19-90.58,0-31.19,14.94-43.67,26.13-48.64Z"/><path class="cls-2" d="m722.3,177.86c-1.5,7.13-4.13,14.92-7.88,23.36-3.76,8.44-8.36,16.8-13.79,25.05-5.44,8.26-11.54,15.95-18.29,23.08-6.75,7.13-14.07,12.86-21.95,17.17-7.88,4.32-16.04,6.67-24.48,7.04-8.44.38-16.98-2.06-25.61-7.32-6.01-4.12-10.41-9.09-13.23-14.92-2.81-5.81-4.6-12.01-5.35-18.58-.76-6.56-.56-13.23.56-19.98,1.13-6.75,2.81-13.13,5.07-19.14,6.38-19.14,16.23-37.05,29.55-53.75,13.32-16.69,28.61-30.96,45.87-42.78,17.26-11.82,35.65-20.54,55.16-26.17,19.51-5.63,38.46-6.75,56.85-3.38,26.64,4.88,45.68,12.86,57.13,23.92,11.44,11.07,17.92,26.93,19.42,47.56.37,8.64.09,18.95-.85,30.96-.94,12.01-2.35,24.48-4.22,37.43-1.88,12.95-4.04,25.8-6.47,38.56-2.45,12.76-4.98,24.4-7.6,34.9-3.01,14.63-6.38,29.93-10.13,45.87-3.76,15.95-7.6,31.71-11.54,47.28-3.94,15.58-7.79,30.68-11.54,45.31-3.76,14.63-6.95,28.14-9.57,40.53,21.76-29.64,41.93-59.85,60.51-90.62,18.57-30.76,36.87-61.35,54.88-91.75,18.01-30.4,36.49-60.32,55.44-89.78,18.95-29.45,39.68-57.69,62.2-84.71,8.63-11.26,19.42-20.35,32.37-27.3,12.95-6.94,25.33-11.35,37.15-13.23,11.82-1.87,21.67-1.13,29.55,2.25,7.88,3.38,11.06,9.76,9.57,19.14-15.39,3.01-28.99,7.23-40.81,12.67-11.82,5.44-22.8,12.58-32.93,21.39-10.13,8.82-20.17,19.52-30.11,32.08-9.95,12.58-20.92,27.3-32.93,44.19-12.01,16.89-24.4,35.74-37.15,56.57-12.76,20.83-25.52,42.22-38.28,64.17-12.76,21.95-25.52,43.62-38.28,65.01-12.76,21.39-25.24,40.91-37.43,58.54-12.2,17.64-23.92,32.56-35.18,44.75-11.26,12.19-21.95,20.17-32.08,23.92-13.89,4.5-24.86,5.53-32.93,3.1-8.07-2.45-13.98-7.51-17.73-15.2-3.76-7.7-5.54-17.54-5.35-29.55.18-12,1.78-25.51,4.78-40.53,3-15.76,6.28-32.55,9.85-50.38,3.56-17.82,7.22-35.74,10.98-53.75,3.75-18.01,7.5-35.83,11.26-53.47,3.75-17.63,7.32-34.33,10.69-50.1,1.5-11.26,3.94-24.29,7.32-39.12,3.38-14.82,5.43-28.71,6.19-41.65.75-12.95-.85-23.73-4.79-32.37-3.94-8.63-12.48-12.38-25.61-11.26-12.76-.37-26.46,2.63-41.09,9.01-14.63,6.38-28.71,15.2-42.22,26.46-13.51,11.26-25.71,24.3-36.59,39.12-10.89,14.83-18.95,30.11-24.2,45.87-2.25,6.39-3.1,12.3-2.53,17.73.56,5.44,2.06,9.76,4.5,12.95,2.44,3.19,5.72,5.07,9.85,5.63,4.12.56,9.01-.65,14.63-3.66,11.63-7.88,23.54-19.42,35.74-34.62,12.19-15.2,22.23-35.18,30.11-59.95,3.38.38,6.84,2.73,10.41,7.04,3.56,4.32,4.59,10.79,3.1,19.42Z"/><path class="cls-2" d="m1026.24,452.54c9.01-8.63,16.97-16.69,23.92-24.2,6.94-7.5,13.6-14.92,19.98-22.23,6.38-7.32,12.57-14.82,18.58-22.51,6-7.69,12.57-16.04,19.7-25.05,3.38-4.12,6.47-6.28,9.29-6.47,2.81-.18,4.87.94,6.19,3.38,1.31,2.44,1.78,5.72,1.41,9.85-.38,4.13-2.07,8.26-5.07,12.38-12.38,19.14-26.17,37.25-41.37,54.32-15.2,17.08-29.18,31.62-41.93,43.62-8.26,7.88-17.64,12.95-28.14,15.2-10.51,2.25-20.26,1.69-29.27-1.69-9.01-3.38-16.32-9.85-21.95-19.42-5.63-9.57-7.69-22.23-6.19-37.99,0-7.88,1.22-17.07,3.66-27.58,2.45-10.5,5.44-21.2,9.01-32.08,3.57-10.88,7.23-21.2,10.98-30.96,3.76-9.75,6.94-18.01,9.57-24.77,2.62-4.5,7.32-7.88,14.07-10.13,6.75-2.25,13.51-3.1,20.26-2.53,6.75.56,12.57,2.53,17.45,5.91,4.87,3.38,6.94,8.07,6.19,14.07-5.26,19.52-11.26,38.37-18.01,56.57-6.75,18.21-12.76,36.31-18.01,54.32-.76,3.01-.94,6.29-.56,9.85.37,3.57,1.41,6.47,3.1,8.72,1.69,2.25,3.94,3.57,6.75,3.94,2.81.38,6.28-1.12,10.41-4.5Zm14.07-180.68c-18.39-.75-30.59-7.32-36.59-19.7-3.38-8.63-1.97-16.23,4.22-22.8,6.19-6.56,14.72-9.85,25.61-9.85,9.01,0,16.79,1.88,23.36,5.63,6.56,3.76,10.98,9.01,13.23,15.76,3.75,8.64,2.62,15.95-3.38,21.95s-14.83,9.01-26.46,9.01Z"/><path class="cls-2" d="m1202.97,457.61c-4.13,5.63-9.48,10.98-16.04,16.04-6.57,5.07-13.7,9.01-21.39,11.82-7.7,2.81-15.67,4.22-23.92,4.22s-15.95-2.07-23.08-6.19c-13.88-7.88-24.39-17.45-31.52-28.71-7.12-11.26-11.26-23.17-12.38-35.74-1.12-12.57.28-25.14,4.22-37.71,3.94-12.57,9.95-24.2,18.01-34.9,8.07-10.69,17.82-19.88,29.27-27.58,11.44-7.69,24.11-13.03,37.99-16.04,8.25-1.5,17.07-1.97,26.46-1.41,9.38.56,19.32,2.35,29.83,5.35,6.38-21.76,13.41-43.71,21.11-65.86,7.69-22.14,17.07-42.22,28.14-60.23,11.06-18.01,24.29-33.02,39.68-45.03,15.38-12.01,33.96-18.94,55.72-20.83,10.13-1.13,18.57.94,25.33,6.19,6.75,5.26,10.5,12.58,11.26,21.95.75,16.52-2.81,33.4-10.69,50.66-7.88,17.26-17.83,33.77-29.83,49.53-12.01,15.76-25.05,30.31-39.12,43.62-14.07,13.32-26.93,24.3-38.56,32.93-5.26,20.64-10.89,43.06-16.89,67.26-6.01,24.2-10.89,46.63-14.63,67.26-1.5,7.13-.66,10.61,2.53,10.41,3.18-.18,7.69-2.81,13.51-7.88,5.81-5.07,12.29-12,19.42-20.83,7.12-8.81,14.16-18.2,21.11-28.14,6.94-9.94,13.13-20.07,18.58-30.4,5.43-10.32,9.09-19.6,10.98-27.86.37-2.62,2.06-4.12,5.07-4.5,3-.37,6,.19,9.01,1.69,3,1.5,5.35,3.57,7.04,6.19,1.69,2.63,1.59,5.44-.28,8.44-3.75,9.38-8.44,19.42-14.07,30.11s-11.92,21.39-18.86,32.08c-6.95,10.69-14.27,20.92-21.95,30.68-7.7,9.76-15.39,18.01-23.08,24.77-7.7,6.75-15.01,11.54-21.95,14.35-6.95,2.81-13.04,2.9-18.29.28-18.77-5.63-31.34-17.63-37.71-36.02Zm-10.69-127.21c-7.88,3.38-15.67,9.38-23.36,18.01-7.7,8.64-14.07,18.67-19.14,30.11-5.07,11.45-8.26,23.36-9.57,35.74-1.32,12.38.28,23.83,4.78,34.34,3,5.26,7.12,7.79,12.38,7.6,5.25-.18,10.5-1.87,15.76-5.07,5.25-3.18,10.13-7.04,14.63-11.54s7.5-8.44,9.01-11.82c4.87-12.01,8.53-26.08,10.98-42.22,2.44-16.13,4.59-30.96,6.47-44.47,1.13-3.38.75-5.91-1.13-7.6-1.88-1.69-4.13-2.81-6.75-3.38-2.63-.56-5.35-.75-8.16-.56-2.81.19-4.78.47-5.91.84Zm185.75-194.75c-7.13,0-14.83,3.76-23.08,11.26-8.26,7.51-16.32,17.83-24.2,30.96-7.88,13.14-15.2,28.62-21.95,46.44-6.75,17.83-12.01,37.06-15.76,57.69,8.25-9.75,17.92-21.2,28.99-34.34,11.06-13.13,21.39-26.46,30.96-39.96,9.57-13.51,16.97-26.64,22.23-39.4,5.25-12.75,6.19-23.64,2.81-32.65Z"/><path class="cls-2" d="m1424.74,456.48c-9.38,7.13-20.46,12.95-33.21,17.45-12.76,4.5-25.05,6.47-36.87,5.91s-22.14-4.41-30.96-11.54c-8.81-7.12-14.16-18.76-16.04-34.9-2.25-23.64.47-44.84,8.16-63.6,7.7-18.76,18.29-33.58,31.8-44.47,13.51-10.88,29.08-17.17,46.72-18.86,17.63-1.69,35.46,2.73,53.47,13.23,1.5-5.25,5.72-8.72,12.67-10.41,6.94-1.69,14.07-2.15,21.39-1.41,7.32.76,13.79,2.16,19.42,4.22,5.63,2.07,7.88,4.04,6.75,5.91-.76,3.76-2.35,9.76-4.78,18.01-2.45,8.26-5.35,17.45-8.72,27.58-3.38,10.13-6.57,20.54-9.57,31.24-3.01,10.7-5.26,20.46-6.75,29.27-1.5,8.82-1.88,16.04-1.13,21.67.75,5.63,3.38,8.26,7.88,7.88,3.38,0,8.25-3.18,14.63-9.57s13.32-14.35,20.83-23.92c7.5-9.57,14.82-19.88,21.95-30.96,7.12-11.06,13.32-21.11,18.58-30.11,4.5-4.5,8.06-6.94,10.69-7.32,2.62-.37,4.5.1,5.63,1.41,1.13,1.32,1.69,3.01,1.69,5.07s-.19,3.29-.56,3.66c-10.13,23.27-21.77,43.72-34.9,61.35-13.14,17.64-27.21,33.77-42.22,48.41-13.14,10.88-26.37,14.82-39.68,11.82-13.32-3.01-25.61-12-36.87-27.02Zm18.01-123.27c-12.38-3.75-23.46-2.53-33.21,3.66-9.76,6.19-17.92,14.73-24.49,25.61-6.57,10.89-11.35,22.71-14.35,35.46-3.01,12.76-3.76,24.02-2.25,33.77,1.87,7.88,5.07,12.67,9.57,14.35s9.29,1.6,14.35-.28c5.07-1.87,9.85-4.78,14.35-8.72s7.88-7.78,10.13-11.54c5.25-12.75,9.85-27.39,13.79-43.9,3.94-16.51,7.97-32.65,12.1-48.41Z"/><path class="cls-4" d="m564.61,625.89c-4.9-2.63-8.75-6.29-11.56-10.96s-4.21-9.96-4.21-15.85,1.4-11.18,4.21-15.85,6.66-8.33,11.56-10.96c4.9-2.64,10.41-3.95,16.53-3.95,5.16,0,9.82.91,13.98,2.72,4.17,1.81,7.66,4.42,10.5,7.82l-8.84,8.16c-4.02-4.65-9.01-6.97-14.96-6.97-3.68,0-6.97.81-9.86,2.42-2.89,1.62-5.14,3.87-6.76,6.76-1.62,2.89-2.42,6.18-2.42,9.86s.81,6.97,2.42,9.86c1.61,2.89,3.87,5.14,6.76,6.76,2.89,1.61,6.18,2.42,9.86,2.42,5.95,0,10.94-2.35,14.96-7.06l8.84,8.16c-2.83,3.46-6.35,6.09-10.54,7.9-4.19,1.81-8.87,2.72-14.03,2.72-6.06,0-11.55-1.32-16.45-3.95Z"/><path class="cls-4" d="m621.13,626.48c-3.83-2.01-6.81-4.8-8.97-8.37-2.15-3.57-3.23-7.62-3.23-12.16s1.08-8.58,3.23-12.15c2.15-3.57,5.14-6.36,8.97-8.37,3.83-2.01,8.15-3.02,12.96-3.02s9.12,1.01,12.92,3.02c3.8,2.01,6.77,4.8,8.93,8.37,2.15,3.57,3.23,7.62,3.23,12.15s-1.08,8.59-3.23,12.16c-2.15,3.57-5.13,6.36-8.93,8.37-3.8,2.01-8.1,3.02-12.92,3.02s-9.14-1.01-12.96-3.02Zm21.33-11.31c2.18-2.29,3.27-5.37,3.27-9.22s-1.09-6.93-3.27-9.22c-2.18-2.29-4.97-3.44-8.37-3.44s-6.21,1.15-8.42,3.44-3.31,5.37-3.31,9.22,1.1,6.93,3.31,9.22,5.02,3.44,8.42,3.44,6.19-1.15,8.37-3.44Z"/><path class="cls-4" d="m702.01,587.47c3.8,3.37,5.7,8.46,5.7,15.26v26.1h-12.41v-5.69c-2.49,4.25-7.14,6.38-13.94,6.38-3.51,0-6.56-.6-9.14-1.79-2.58-1.19-4.55-2.83-5.91-4.93-1.36-2.1-2.04-4.48-2.04-7.14,0-4.25,1.6-7.59,4.8-10.03,3.2-2.44,8.15-3.65,14.83-3.65h10.54c0-2.89-.88-5.11-2.63-6.67-1.76-1.56-4.39-2.34-7.91-2.34-2.44,0-4.83.38-7.18,1.15-2.35.77-4.35,1.8-5.99,3.1l-4.76-9.26c2.49-1.76,5.48-3.12,8.97-4.08,3.48-.96,7.07-1.45,10.75-1.45,7.08,0,12.52,1.69,16.32,5.06Zm-11.3,31.54c1.76-1.05,3-2.59,3.74-4.63v-4.67h-9.09c-5.44,0-8.16,1.79-8.16,5.35,0,1.7.67,3.05,2,4.04,1.33.99,3.16,1.49,5.48,1.49s4.28-.52,6.04-1.57Z"/><path class="cls-4" d="m729.17,626.48c-3.88-2.01-6.91-4.8-9.09-8.37-2.18-3.57-3.27-7.62-3.27-12.16s1.09-8.58,3.27-12.15c2.18-3.57,5.21-6.36,9.09-8.37,3.88-2.01,8.26-3.02,13.13-3.02s9.02,1.01,12.62,3.02c3.6,2.01,6.22,4.89,7.86,8.63l-10.29,5.52c-2.38-4.19-5.81-6.29-10.29-6.29-3.46,0-6.32,1.13-8.58,3.4s-3.4,5.35-3.4,9.26,1.13,7,3.4,9.27c2.27,2.27,5.13,3.4,8.58,3.4,4.53,0,7.96-2.1,10.29-6.29l10.29,5.61c-1.64,3.63-4.26,6.46-7.86,8.5-3.6,2.04-7.81,3.06-12.62,3.06s-9.25-1.01-13.13-3.02Z"/><path class="cls-4" d="m811.62,587.51c3.48,3.4,5.23,8.44,5.23,15.13v26.18h-13.26v-24.14c0-3.63-.79-6.33-2.38-8.12-1.59-1.79-3.88-2.68-6.88-2.68-3.34,0-6.01,1.03-7.99,3.1-1.98,2.07-2.98,5.14-2.98,9.22v22.61h-13.26v-63.07h13.26v22.1c1.76-1.76,3.88-3.1,6.38-4.04,2.49-.94,5.21-1.4,8.16-1.4,5.67,0,10.24,1.7,13.73,5.1Z"/><path class="cls-4" d="m829.51,574.59c-1.53-1.42-2.29-3.17-2.29-5.27s.77-3.85,2.29-5.27c1.53-1.42,3.51-2.12,5.95-2.12s4.42.68,5.95,2.04c1.53,1.36,2.29,3.06,2.29,5.1,0,2.21-.77,4.04-2.29,5.48-1.53,1.44-3.51,2.17-5.95,2.17s-4.42-.71-5.95-2.12Zm-.68,8.5h13.26v45.73h-13.26v-45.73Z"/><path class="cls-4" d="m895.94,587.51c3.48,3.4,5.23,8.44,5.23,15.13v26.18h-13.26v-24.14c0-3.63-.79-6.33-2.38-8.12-1.59-1.79-3.88-2.68-6.88-2.68-3.34,0-6.01,1.03-7.99,3.1-1.98,2.07-2.98,5.14-2.98,9.22v22.61h-13.26v-45.73h12.67v5.35c1.76-1.93,3.94-3.41,6.54-4.46,2.61-1.05,5.47-1.57,8.58-1.57,5.67,0,10.24,1.7,13.73,5.1Z"/><path class="cls-4" d="m960.83,583.09v38.08c0,8.39-2.18,14.62-6.54,18.7-4.36,4.08-10.74,6.12-19.12,6.12-4.42,0-8.61-.54-12.58-1.61-3.97-1.08-7.25-2.64-9.86-4.68l5.27-9.52c1.93,1.59,4.36,2.85,7.31,3.78,2.95.94,5.89,1.4,8.84,1.4,4.59,0,7.98-1.03,10.16-3.1,2.18-2.07,3.27-5.2,3.27-9.39v-1.95c-3.46,3.8-8.27,5.69-14.45,5.69-4.19,0-8.03-.92-11.52-2.76-3.48-1.84-6.25-4.43-8.29-7.78-2.04-3.34-3.06-7.2-3.06-11.56s1.02-8.22,3.06-11.56c2.04-3.34,4.8-5.94,8.29-7.78,3.49-1.84,7.32-2.76,11.52-2.76,6.63,0,11.67,2.18,15.13,6.54v-5.86h12.58Zm-16.45,29.54c2.24-2.07,3.36-4.77,3.36-8.12s-1.12-6.05-3.36-8.12c-2.24-2.07-5.11-3.1-8.63-3.1s-6.4,1.03-8.67,3.1c-2.27,2.07-3.4,4.77-3.4,8.12s1.13,6.05,3.4,8.12c2.27,2.07,5.16,3.1,8.67,3.1s6.39-1.03,8.63-3.1Z"/><path class="cls-4" d="m1010.17,625.89c-4.9-2.63-8.75-6.29-11.56-10.96s-4.21-9.96-4.21-15.85,1.4-11.18,4.21-15.85,6.66-8.33,11.56-10.96c4.9-2.64,10.41-3.95,16.53-3.95,5.16,0,9.82.91,13.98,2.72,4.17,1.81,7.66,4.42,10.5,7.82l-8.84,8.16c-4.02-4.65-9.01-6.97-14.96-6.97-3.68,0-6.97.81-9.86,2.42-2.89,1.62-5.14,3.87-6.76,6.76-1.62,2.89-2.42,6.18-2.42,9.86s.81,6.97,2.42,9.86c1.61,2.89,3.87,5.14,6.76,6.76,2.89,1.61,6.18,2.42,9.86,2.42,5.95,0,10.94-2.35,14.96-7.06l8.84,8.16c-2.83,3.46-6.35,6.09-10.54,7.9-4.19,1.81-8.87,2.72-14.03,2.72-6.06,0-11.55-1.32-16.45-3.95Z"/><path class="cls-4" d="m1078.6,584.11c2.69-1.13,5.79-1.7,9.31-1.7v12.24c-1.47-.11-2.46-.17-2.97-.17-3.8,0-6.77,1.06-8.93,3.19-2.15,2.12-3.23,5.31-3.23,9.56v21.59h-13.26v-45.73h12.67v6.04c1.59-2.21,3.73-3.88,6.42-5.02Z"/><path class="cls-4" d="m1096.49,574.59c-1.53-1.42-2.29-3.17-2.29-5.27s.77-3.85,2.29-5.27c1.53-1.42,3.51-2.12,5.95-2.12s4.42.68,5.95,2.04c1.53,1.36,2.29,3.06,2.29,5.1,0,2.21-.77,4.04-2.29,5.48-1.53,1.44-3.51,2.17-5.95,2.17s-4.42-.71-5.95-2.12Zm-.68,8.5h13.26v45.73h-13.26v-45.73Z"/><path class="cls-4" d="m1125.64,628.1c-3.63-.94-6.52-2.11-8.67-3.53l4.42-9.52c2.04,1.3,4.5,2.37,7.4,3.19,2.89.82,5.72,1.23,8.5,1.23,5.61,0,8.42-1.39,8.42-4.17,0-1.3-.77-2.24-2.3-2.8-1.53-.57-3.88-1.05-7.05-1.45-3.74-.57-6.83-1.22-9.27-1.96-2.44-.74-4.55-2.04-6.33-3.91s-2.68-4.53-2.68-7.99c0-2.89.84-5.45,2.51-7.69,1.67-2.24,4.11-3.98,7.31-5.23,3.2-1.25,6.98-1.87,11.35-1.87,3.23,0,6.45.35,9.65,1.06,3.2.71,5.85,1.69,7.95,2.93l-4.42,9.44c-4.02-2.27-8.42-3.4-13.17-3.4-2.83,0-4.96.4-6.38,1.19-1.42.79-2.12,1.81-2.12,3.06,0,1.42.76,2.41,2.29,2.98,1.53.57,3.97,1.1,7.31,1.61,3.74.62,6.8,1.29,9.18,2,2.38.71,4.45,2,6.21,3.87,1.76,1.87,2.64,4.48,2.64,7.82,0,2.83-.85,5.35-2.55,7.56-1.7,2.21-4.18,3.92-7.44,5.14-3.26,1.22-7.13,1.83-11.6,1.83-3.8,0-7.51-.47-11.13-1.4Z"/><path class="cls-4" d="m1196.02,626.61c-1.3.96-2.9,1.69-4.8,2.17-1.9.48-3.9.72-5.99.72-5.44,0-9.65-1.39-12.62-4.17-2.97-2.78-4.46-6.86-4.46-12.24v-18.78h-7.05v-10.2h7.05v-11.14h13.26v11.14h11.39v10.2h-11.39v18.61c0,1.93.5,3.41,1.49,4.46.99,1.05,2.39,1.57,4.21,1.57,2.1,0,3.88-.57,5.35-1.7l3.57,9.35Z"/><path class="cls-4" d="m1238.27,587.47c3.8,3.37,5.7,8.46,5.7,15.26v26.1h-12.41v-5.69c-2.49,4.25-7.14,6.38-13.94,6.38-3.51,0-6.56-.6-9.14-1.79-2.58-1.19-4.55-2.83-5.91-4.93-1.36-2.1-2.04-4.48-2.04-7.14,0-4.25,1.6-7.59,4.8-10.03,3.2-2.44,8.15-3.65,14.83-3.65h10.54c0-2.89-.88-5.11-2.63-6.67-1.76-1.56-4.39-2.34-7.91-2.34-2.44,0-4.83.38-7.18,1.15-2.35.77-4.35,1.8-5.99,3.1l-4.76-9.26c2.49-1.76,5.48-3.12,8.97-4.08,3.48-.96,7.07-1.45,10.75-1.45,7.08,0,12.52,1.69,16.32,5.06Zm-12.62-10.88c-1.16-.6-2.45-1.4-3.87-2.42-.91-.68-1.66-1.19-2.25-1.53-.6-.34-1.18-.51-1.74-.51-1.19,0-2.15.41-2.89,1.23-.74.82-1.13,2-1.19,3.53h-6.71c.11-3.8,1.06-6.81,2.85-9.05,1.78-2.24,4.15-3.36,7.1-3.36,1.47,0,2.79.3,3.95.89,1.16.6,2.48,1.43,3.95,2.51.91.68,1.66,1.19,2.25,1.53s1.18.51,1.74.51c1.13,0,2.08-.41,2.85-1.23.77-.82,1.18-1.94,1.23-3.36h6.72c-.11,3.68-1.06,6.63-2.85,8.84-1.79,2.21-4.15,3.31-7.1,3.31-1.53,0-2.88-.3-4.04-.89Zm1.32,42.42c1.76-1.05,3-2.59,3.74-4.63v-4.67h-9.09c-5.44,0-8.16,1.79-8.16,5.35,0,1.7.67,3.05,2,4.04,1.33.99,3.16,1.49,5.48,1.49s4.28-.52,6.04-1.57Z"/><path class="cls-4" d="m1265.25,626.48c-3.83-2.01-6.81-4.8-8.97-8.37-2.15-3.57-3.23-7.62-3.23-12.16s1.08-8.58,3.23-12.15c2.15-3.57,5.14-6.36,8.97-8.37,3.83-2.01,8.15-3.02,12.96-3.02s9.12,1.01,12.92,3.02c3.8,2.01,6.77,4.8,8.93,8.37,2.15,3.57,3.23,7.62,3.23,12.15s-1.08,8.59-3.23,12.16c-2.15,3.57-5.13,6.36-8.93,8.37-3.8,2.01-8.1,3.02-12.92,3.02s-9.14-1.01-12.96-3.02Zm21.33-11.31c2.18-2.29,3.27-5.37,3.27-9.22s-1.09-6.93-3.27-9.22c-2.18-2.29-4.97-3.44-8.37-3.44s-6.21,1.15-8.42,3.44-3.31,5.37-3.31,9.22,1.1,6.93,3.31,9.22,5.02,3.44,8.42,3.44,6.19-1.15,8.37-3.44Z"/><path class="cls-4" d="m1349.15,625.89c-4.9-2.63-8.75-6.29-11.56-10.96s-4.21-9.96-4.21-15.85,1.4-11.18,4.21-15.85,6.66-8.33,11.56-10.96c4.9-2.64,10.41-3.95,16.53-3.95,5.16,0,9.82.91,13.98,2.72,4.17,1.81,7.66,4.42,10.5,7.82l-8.84,8.16c-4.02-4.65-9.01-6.97-14.96-6.97-3.68,0-6.97.81-9.86,2.42-2.89,1.62-5.14,3.87-6.76,6.76-1.62,2.89-2.42,6.18-2.42,9.86s.81,6.97,2.42,9.86c1.61,2.89,3.87,5.14,6.76,6.76,2.89,1.61,6.18,2.42,9.86,2.42,5.95,0,10.94-2.35,14.96-7.06l8.84,8.16c-2.83,3.46-6.35,6.09-10.54,7.9-4.19,1.81-8.87,2.72-14.03,2.72-6.06,0-11.55-1.32-16.45-3.95Z"/><path class="cls-4" d="m1417.57,584.11c2.69-1.13,5.79-1.7,9.31-1.7v12.24c-1.47-.11-2.46-.17-2.97-.17-3.8,0-6.77,1.06-8.93,3.19-2.15,2.12-3.23,5.31-3.23,9.56v21.59h-13.26v-45.73h12.67v6.04c1.59-2.21,3.73-3.88,6.42-5.02Z"/><path class="cls-4" d="m1435.46,574.59c-1.53-1.42-2.29-3.17-2.29-5.27s.77-3.85,2.29-5.27c1.53-1.42,3.51-2.12,5.95-2.12s4.42.68,5.95,2.04c1.53,1.36,2.29,3.06,2.29,5.1,0,2.21-.77,4.04-2.29,5.48-1.53,1.44-3.51,2.17-5.95,2.17s-4.42-.71-5.95-2.12Zm-.68,8.5h13.26v45.73h-13.26v-45.73Z"/><path class="cls-4" d="m1495.13,587.47c3.8,3.37,5.7,8.46,5.7,15.26v26.1h-12.41v-5.69c-2.49,4.25-7.14,6.38-13.94,6.38-3.51,0-6.56-.6-9.14-1.79-2.58-1.19-4.55-2.83-5.91-4.93-1.36-2.1-2.04-4.48-2.04-7.14,0-4.25,1.6-7.59,4.8-10.03,3.2-2.44,8.15-3.65,14.83-3.65h10.54c0-2.89-.88-5.11-2.63-6.67-1.76-1.56-4.39-2.34-7.91-2.34-2.44,0-4.83.38-7.18,1.15-2.35.77-4.35,1.8-5.99,3.1l-4.76-9.26c2.49-1.76,5.48-3.12,8.97-4.08,3.48-.96,7.07-1.45,10.75-1.45,7.08,0,12.52,1.69,16.32,5.06Zm-11.3,31.54c1.76-1.05,3-2.59,3.74-4.63v-4.67h-9.09c-5.44,0-8.16,1.79-8.16,5.35,0,1.7.67,3.05,2,4.04,1.33.99,3.16,1.49,5.48,1.49s4.28-.52,6.04-1.57Z"/><path class="cls-4" d="m1542.31,626.61c-1.3.96-2.9,1.69-4.8,2.17-1.9.48-3.9.72-5.99.72-5.44,0-9.65-1.39-12.62-4.17-2.97-2.78-4.46-6.86-4.46-12.24v-18.78h-7.05v-10.2h7.05v-11.14h13.26v11.14h11.39v10.2h-11.39v18.61c0,1.93.5,3.41,1.49,4.46.99,1.05,2.39,1.57,4.21,1.57,2.1,0,3.88-.57,5.35-1.7l3.57,9.35Z"/><path class="cls-4" d="m1550.47,574.59c-1.53-1.42-2.29-3.17-2.29-5.27s.77-3.85,2.29-5.27c1.53-1.42,3.51-2.12,5.95-2.12s4.42.68,5.95,2.04c1.53,1.36,2.29,3.06,2.29,5.1,0,2.21-.77,4.04-2.29,5.48-1.53,1.44-3.51,2.17-5.95,2.17s-4.42-.71-5.95-2.12Zm-.68,8.5h13.26v45.73h-13.26v-45.73Z"/><path class="cls-4" d="m1620.76,583.09l-19.29,45.73h-13.69l-19.21-45.73h13.69l12.67,31.11,13.09-31.11h12.75Z"/><path class="cls-4" d="m1633.73,626.48c-3.83-2.01-6.81-4.8-8.97-8.37-2.15-3.57-3.23-7.62-3.23-12.16s1.08-8.58,3.23-12.15c2.15-3.57,5.14-6.36,8.97-8.37,3.83-2.01,8.15-3.02,12.96-3.02s9.12,1.01,12.92,3.02c3.8,2.01,6.77,4.8,8.93,8.37,2.15,3.57,3.23,7.62,3.23,12.15s-1.08,8.59-3.23,12.16c-2.15,3.57-5.13,6.36-8.93,8.37-3.8,2.01-8.1,3.02-12.92,3.02s-9.14-1.01-12.96-3.02Zm21.33-11.31c2.18-2.29,3.27-5.37,3.27-9.22s-1.09-6.93-3.27-9.22c-2.18-2.29-4.97-3.44-8.37-3.44s-6.21,1.15-8.42,3.44-3.31,5.37-3.31,9.22,1.1,6.93,3.31,9.22,5.02,3.44,8.42,3.44,6.19-1.15,8.37-3.44Z"/><path class="cls-4" d="m298.6,589.72c-2.43,3.98-5.46,7.48-8.71,10.81-4.8,4.92-10,9.35-15.91,12.89-2.65,1.59-5.38,3.04-8.47,3.53-2.85.45-5.41-.21-7.3-2.54-1.89-2.33-1.89-5.75-.07-8.39,2.1-3.04,4.86-5.32,8.25-6.78,1.01-.43,2.12-.62,3.18-.95,1.33-.42,2.69-.78,3.97-1.32,4.23-1.78,6.64-5,7.25-9.55.39-2.9.16-5.77-.29-8.64-.32-2.03-.57-4.06-.25-6.12.65-4.17,3.28-7.05,7.37-8.02,1.43-.34,2.75-.15,4.04.56,2.93,1.62,5.15,3.98,6.91,6.77.81,1.28,1.49,2.64,2.2,3.98,1.42,2.71,1.52,5.52.41,8.33-.73,1.87-1.61,3.67-2.43,5.51-.05-.02-.1-.05-.15-.07Z"/><path class="cls-4" d="m298.09,559.38c-.91,1.02-1.75,2.11-2.73,3.06-1.3,1.27-3.83,1.28-5.47.14-1.26-.87-1.71-2.85-1.08-4.58.57-1.55,1.72-2.63,3-3.56.99-.72,2.04-1.38,3.1-1.98,1.19-.68,2.04-.47,2.93.57,1.64,1.93,1.69,3.91.24,6.35Z"/><path class="cls-4" d="m302.53,563.24c-.69.57-1.27,1.17-1.95,1.58-.99.59-1.96.18-2.39-.89-.85-2.1,1.04-4.48,3.31-4.19.71.09,1.3.62,1.32,1.39.02.69-.18,1.38-.29,2.11Z"/><path class="cls-4" d="m301.02,566.42c.52-.69,1.12-1.22,1.99-1.35.73-.11,1.28.22,1.56.9.63,1.54-.38,3.19-2.04,3.32-.69.05-1.26-.18-1.62-.78-.43-.72-.27-1.41.1-2.08Z"/><path class="cls-4" d="m305.45,572.63s-.04.07-.06.11c-.51.74-1.39,1.07-2.01.74-.66-.35-.93-1.36-.54-2.18.16-.33.37-.64.61-.91.77-.87,1.12-.84,1.78.14.45.66.7,1.35.22,2.11Z"/><path class="cls-4" d="m305.8,576.89c-.43.71-1.11,1.01-1.8.8-.54-.17-.82-.56-.61-1.07.3-.71.68-1.39,1.11-2.03.25-.38.64-.36,1-.02.7.65.82,1.48.31,2.32Z"/><path class="cls-4" d="m207.71,581.76c1.41-2.19,2.93-4.27,4.9-5.99,1.37-1.19,2.92-1.96,4.73-2.17,4.24-.5,8.41-.28,12.4,1.32,1.3.52,2.49,1.32,3.67,2.08.79.51,1.22,1.37,1.51,2.27,1.33,4.1.04,8.07-3.47,10.7-1.43,1.07-3.02,1.81-4.7,2.39-2.82.97-5.57,2.08-8.06,3.77-3.59,2.43-5.68,5.73-5.52,10.16.06,1.73.29,3.5.77,5.15,1.09,3.75.87,7.42-.29,11.08-.57,1.79-1.31,3.51-2.74,4.81-3.43,3.1-8.29,2.34-10.69-1.65-1.18-1.96-1.52-4.15-1.67-6.37-.33-4.8.25-9.54,1.15-14.25,1.16-6.1,2.91-12.03,5.34-17.75.8-1.89,1.77-3.7,2.67-5.54Z"/><path class="cls-4" d="m240.93,574.79c-.31.33-.64.79-1.05,1.14-2.07,1.74-4.29,1.37-5.84-.84-1.17-1.65-.97-3.3-.17-4.93.63-1.3,1.31-2.61,2.19-3.74,1.16-1.47,3.35-1.8,5.06-1.04.63.28,1.11.72,1.15,1.4.15,2.72-.06,5.4-1.34,8Z"/><path class="cls-4" d="m232.87,568.69c-.56.95-1.71,1.49-2.76,1.33-.71-.11-1.17-.56-1.32-1.27-.26-1.27.5-3.13,1.57-3.86,1.24-.84,2.47-.35,2.81,1.1.22.95.14,1.87-.3,2.7Z"/><path class="cls-4" d="m227.11,568.75c-.48.81-1.26,1.18-2.06.99-.76-.19-1.27-.86-1.33-1.79-.09-1.37.69-2.35,2.02-2.56.84-.13,1.44.25,1.69,1.06.21.68.07,1.64-.33,2.31Z"/><path class="cls-4" d="m222.28,569.05c-.36.57-.82.99-1.5,1.09-.86.13-1.5-.4-1.5-1.27,0-.71.2-1.35.87-1.72.74-.4,1.52-.29,2.25.02.17.07.29.49.26.72-.05.4-.25.77-.38,1.16Z"/><path class="cls-4" d="m217.83,570.42c-.18.27-.35.56-.55.81-.63.75-1.44.61-1.79-.31-.25-.64,0-1.47.59-1.98.58-.5,1.41-.63,1.98-.2.19.14.27.56.23.82-.05.3-.31.56-.48.84.01,0,.02.01.03.02Z"/></svg>