<?xml version="1.0" encoding="UTF-8"?><svg id="Layer_1" xmlns="http://www.w3.org/2000/svg" viewBox="0 0 1024 420"><defs><style>.cls-1{fill:#e85d5d;}.cls-2{fill:#abb368;}</style></defs><path class="cls-1" d="m43.22,396.26c-3.98-2.14-7.11-5.11-9.39-8.91-2.28-3.8-3.42-8.09-3.42-12.88s1.14-9.08,3.42-12.88c2.28-3.8,5.41-6.77,9.39-8.91,3.98-2.14,8.46-3.21,13.44-3.21,4.19,0,7.98.74,11.36,2.21,3.38,1.47,6.23,3.59,8.53,6.36l-7.18,6.63c-3.27-3.78-7.32-5.66-12.16-5.66-2.99,0-5.67.66-8.01,1.97s-4.18,3.14-5.49,5.49-1.97,5.02-1.97,8.01.66,5.67,1.97,8.01,3.14,4.18,5.49,5.49,5.02,1.97,8.01,1.97c4.83,0,8.89-1.91,12.16-5.73l7.18,6.63c-2.3,2.81-5.16,4.95-8.57,6.42-3.41,1.47-7.21,2.21-11.4,2.21-4.93,0-9.38-1.07-13.37-3.21Z"/><path class="cls-1" d="m98.83,362.31c2.19-.92,4.71-1.38,7.56-1.38v9.95c-1.2-.09-2-.14-2.42-.14-3.09,0-5.5.86-7.25,2.59-1.75,1.73-2.62,4.32-2.62,7.77v17.55h-10.78v-37.16h10.29v4.9c1.29-1.8,3.03-3.15,5.21-4.08Z"/><path class="cls-1" d="m148.67,383.1h-28.12c.51,2.3,1.7,4.12,3.59,5.46,1.89,1.34,4.24,2,7.05,2,1.93,0,3.65-.29,5.15-.86,1.5-.58,2.89-1.49,4.18-2.73l5.73,6.22c-3.5,4.01-8.61,6.01-15.33,6.01-4.19,0-7.9-.82-11.12-2.45-3.22-1.63-5.71-3.9-7.46-6.8-1.75-2.9-2.62-6.19-2.62-9.88s.86-6.92,2.59-9.84c1.73-2.92,4.1-5.2,7.12-6.84,3.02-1.63,6.39-2.45,10.12-2.45s6.93.78,9.88,2.35,5.26,3.81,6.94,6.74c1.68,2.92,2.52,6.32,2.52,10.19,0,.14-.07,1.11-.21,2.9Zm-25.21-11.95c-1.66,1.38-2.67,3.27-3.04,5.66h18.31c-.37-2.35-1.38-4.22-3.04-5.63-1.66-1.4-3.69-2.11-6.08-2.11s-4.49.69-6.15,2.07Z"/><path class="cls-1" d="m183.28,365.04c3.08,2.74,4.63,6.87,4.63,12.4v21.21h-10.09v-4.63c-2.03,3.45-5.8,5.18-11.33,5.18-2.86,0-5.33-.48-7.43-1.45-2.1-.97-3.7-2.3-4.8-4.01-1.11-1.7-1.66-3.64-1.66-5.8,0-3.45,1.3-6.17,3.9-8.15,2.6-1.98,6.62-2.97,12.05-2.97h8.57c0-2.35-.71-4.16-2.14-5.42-1.43-1.27-3.57-1.9-6.42-1.9-1.98,0-3.93.31-5.84.93s-3.54,1.46-4.87,2.52l-3.87-7.53c2.03-1.43,4.46-2.53,7.29-3.32,2.83-.78,5.74-1.17,8.74-1.17,5.76,0,10.18,1.37,13.26,4.11Zm-9.19,25.63c1.43-.85,2.44-2.11,3.04-3.76v-3.8h-7.39c-4.42,0-6.63,1.45-6.63,4.35,0,1.38.54,2.48,1.62,3.28,1.08.81,2.57,1.21,4.46,1.21s3.48-.43,4.9-1.28Z"/><path class="cls-1" d="m221.62,396.85c-1.06.78-2.36,1.37-3.9,1.76s-3.17.59-4.87.59c-4.42,0-7.84-1.13-10.26-3.38-2.42-2.26-3.63-5.57-3.63-9.95v-15.27h-5.73v-8.29h5.73v-9.05h10.78v9.05h9.26v8.29h-9.26v15.13c0,1.57.4,2.78,1.21,3.63.8.85,1.95,1.28,3.42,1.28,1.7,0,3.15-.46,4.35-1.38l2.9,7.6Z"/><path class="cls-1" d="m228.25,354.57c-1.24-1.15-1.87-2.58-1.87-4.28s.62-3.13,1.87-4.28c1.24-1.15,2.85-1.73,4.84-1.73s3.59.55,4.83,1.66,1.87,2.49,1.87,4.14c0,1.8-.62,3.28-1.87,4.46-1.24,1.17-2.86,1.76-4.83,1.76s-3.59-.58-4.84-1.73Zm-.55,6.91h10.78v37.16h-10.78v-37.16Z"/><path class="cls-1" d="m284.68,383.1h-28.12c.51,2.3,1.7,4.12,3.59,5.46,1.89,1.34,4.24,2,7.05,2,1.93,0,3.65-.29,5.15-.86,1.5-.58,2.89-1.49,4.18-2.73l5.73,6.22c-3.5,4.01-8.61,6.01-15.33,6.01-4.19,0-7.9-.82-11.12-2.45-3.22-1.63-5.71-3.9-7.46-6.8-1.75-2.9-2.62-6.19-2.62-9.88s.86-6.92,2.59-9.84c1.73-2.92,4.1-5.2,7.12-6.84,3.02-1.63,6.39-2.45,10.12-2.45s6.93.78,9.88,2.35,5.26,3.81,6.94,6.74c1.68,2.92,2.52,6.32,2.52,10.19,0,.14-.07,1.11-.21,2.9Zm-25.21-11.95c-1.66,1.38-2.67,3.27-3.04,5.66h18.31c-.37-2.35-1.38-4.22-3.04-5.63-1.66-1.4-3.69-2.11-6.08-2.11s-4.49.69-6.15,2.07Z"/><path class="cls-1" d="m303.89,362.31h9.53v8.29h-9.26v28.05h-10.78v-28.05h-5.73v-8.29h5.73v-1.66c0-4.24,1.25-7.6,3.76-10.09,2.51-2.49,6.04-3.73,10.6-3.73,1.61,0,3.14.17,4.59.52,1.45.35,2.66.84,3.63,1.49l-2.83,7.81c-1.24-.87-2.69-1.31-4.35-1.31-3.27,0-4.9,1.8-4.9,5.39v1.59Z"/><path class="cls-1" d="m348.89,396.26c-3.98-2.14-7.11-5.11-9.39-8.91-2.28-3.8-3.42-8.09-3.42-12.88s1.14-9.08,3.42-12.88c2.28-3.8,5.41-6.77,9.39-8.91,3.98-2.14,8.46-3.21,13.44-3.21,4.19,0,7.98.74,11.36,2.21,3.38,1.47,6.23,3.59,8.53,6.36l-7.18,6.63c-3.27-3.78-7.32-5.66-12.16-5.66-2.99,0-5.67.66-8.01,1.97s-4.18,3.14-5.49,5.49-1.97,5.02-1.97,8.01.66,5.67,1.97,8.01,3.14,4.18,5.49,5.49,5.02,1.97,8.01,1.97c4.83,0,8.89-1.91,12.16-5.73l7.18,6.63c-2.3,2.81-5.16,4.95-8.57,6.42-3.41,1.47-7.21,2.21-11.4,2.21-4.93,0-9.38-1.07-13.37-3.21Z"/><path class="cls-1" d="m422.74,365.07c2.83,2.76,4.25,6.86,4.25,12.3v21.28h-10.78v-19.62c0-2.95-.65-5.15-1.93-6.6-1.29-1.45-3.16-2.18-5.6-2.18-2.72,0-4.88.84-6.49,2.52-1.61,1.68-2.42,4.18-2.42,7.5v18.38h-10.78v-51.26h10.78v17.96c1.43-1.43,3.15-2.52,5.18-3.28s4.24-1.14,6.63-1.14c4.6,0,8.32,1.38,11.16,4.14Z"/><path class="cls-1" d="m452.23,362.31c2.19-.92,4.71-1.38,7.56-1.38v9.95c-1.2-.09-2-.14-2.42-.14-3.09,0-5.5.86-7.25,2.59-1.75,1.73-2.62,4.32-2.62,7.77v17.55h-10.78v-37.16h10.29v4.9c1.29-1.8,3.03-3.15,5.21-4.08Z"/><path class="cls-1" d="m466.77,354.57c-1.24-1.15-1.87-2.58-1.87-4.28s.62-3.13,1.87-4.28c1.24-1.15,2.85-1.73,4.84-1.73s3.59.55,4.83,1.66,1.87,2.49,1.87,4.14c0,1.8-.62,3.28-1.87,4.46-1.24,1.17-2.86,1.76-4.83,1.76s-3.59-.58-4.84-1.73Zm-.55,6.91h10.78v37.16h-10.78v-37.16Z"/><path class="cls-1" d="m490.47,398.06c-2.95-.76-5.3-1.72-7.05-2.87l3.59-7.74c1.66,1.06,3.66,1.92,6.01,2.59,2.35.67,4.65,1,6.91,1,4.56,0,6.84-1.13,6.84-3.38,0-1.06-.62-1.82-1.87-2.28s-3.16-.85-5.73-1.17c-3.04-.46-5.55-.99-7.53-1.59-1.98-.6-3.7-1.66-5.15-3.18-1.45-1.52-2.18-3.68-2.18-6.49,0-2.35.68-4.43,2.04-6.25,1.36-1.82,3.34-3.23,5.94-4.25,2.6-1.01,5.68-1.52,9.22-1.52,2.62,0,5.24.29,7.84.86,2.6.58,4.75,1.37,6.46,2.38l-3.59,7.67c-3.27-1.84-6.84-2.76-10.71-2.76-2.3,0-4.03.32-5.18.97-1.15.65-1.73,1.47-1.73,2.49,0,1.15.62,1.96,1.87,2.42,1.24.46,3.22.9,5.94,1.31,3.04.51,5.53,1.05,7.46,1.62s3.61,1.62,5.04,3.14c1.43,1.52,2.14,3.64,2.14,6.36,0,2.3-.69,4.35-2.07,6.15-1.38,1.8-3.4,3.19-6.04,4.18-2.65.99-5.79,1.49-9.43,1.49-3.09,0-6.1-.38-9.05-1.14Z"/><path class="cls-1" d="m547.66,396.85c-1.06.78-2.36,1.37-3.9,1.76s-3.17.59-4.87.59c-4.42,0-7.84-1.13-10.26-3.38-2.42-2.26-3.63-5.57-3.63-9.95v-15.27h-5.73v-8.29h5.73v-9.05h10.78v9.05h9.26v8.29h-9.26v15.13c0,1.57.4,2.78,1.21,3.63.8.85,1.95,1.28,3.42,1.28,1.7,0,3.15-.46,4.35-1.38l2.9,7.6Z"/><path class="cls-1" d="m588.76,383.1h-28.12c.51,2.3,1.7,4.12,3.59,5.46,1.89,1.34,4.24,2,7.05,2,1.93,0,3.65-.29,5.15-.86,1.5-.58,2.89-1.49,4.18-2.73l5.73,6.22c-3.5,4.01-8.61,6.01-15.33,6.01-4.19,0-7.9-.82-11.12-2.45-3.22-1.63-5.71-3.9-7.46-6.8-1.75-2.9-2.62-6.19-2.62-9.88s.86-6.92,2.59-9.84c1.73-2.92,4.1-5.2,7.12-6.84,3.02-1.63,6.39-2.45,10.12-2.45s6.93.78,9.88,2.35,5.26,3.81,6.94,6.74c1.68,2.92,2.52,6.32,2.52,10.19,0,.14-.07,1.11-.21,2.9Zm-25.21-11.95c-1.66,1.38-2.67,3.27-3.04,5.66h18.31c-.37-2.35-1.38-4.22-3.04-5.63-1.66-1.4-3.69-2.11-6.08-2.11s-4.49.69-6.15,2.07Z"/><path class="cls-1" d="m629.9,365.07c2.83,2.76,4.25,6.86,4.25,12.3v21.28h-10.78v-19.62c0-2.95-.65-5.15-1.93-6.6-1.29-1.45-3.16-2.18-5.6-2.18-2.72,0-4.88.84-6.49,2.52-1.61,1.68-2.42,4.18-2.42,7.5v18.38h-10.78v-37.16h10.29v4.35c1.43-1.57,3.2-2.77,5.32-3.63,2.12-.85,4.44-1.28,6.98-1.28,4.6,0,8.32,1.38,11.16,4.14Z"/><path class="cls-1" d="m673.97,396.26c-3.98-2.14-7.11-5.11-9.39-8.91-2.28-3.8-3.42-8.09-3.42-12.88s1.14-9.08,3.42-12.88c2.28-3.8,5.41-6.77,9.39-8.91,3.98-2.14,8.46-3.21,13.44-3.21,4.19,0,7.98.74,11.36,2.21,3.38,1.47,6.23,3.59,8.53,6.36l-7.18,6.63c-3.27-3.78-7.32-5.66-12.16-5.66-2.99,0-5.67.66-8.01,1.97s-4.18,3.14-5.49,5.49-1.97,5.02-1.97,8.01.66,5.67,1.97,8.01,3.14,4.18,5.49,5.49,5.02,1.97,8.01,1.97c4.83,0,8.89-1.91,12.16-5.73l7.18,6.63c-2.3,2.81-5.16,4.95-8.57,6.42-3.41,1.47-7.21,2.21-11.4,2.21-4.93,0-9.38-1.07-13.37-3.21Z"/><path class="cls-1" d="m719.91,396.75c-3.11-1.63-5.54-3.9-7.29-6.8-1.75-2.9-2.62-6.19-2.62-9.88s.87-6.98,2.62-9.88c1.75-2.9,4.18-5.17,7.29-6.8s6.62-2.45,10.54-2.45,7.41.82,10.5,2.45c3.08,1.63,5.5,3.9,7.25,6.8,1.75,2.9,2.62,6.2,2.62,9.88s-.88,6.98-2.62,9.88c-1.75,2.9-4.17,5.17-7.25,6.8-3.09,1.63-6.59,2.45-10.5,2.45s-7.43-.82-10.54-2.45Zm17.34-9.19c1.77-1.87,2.66-4.36,2.66-7.5s-.89-5.63-2.66-7.5c-1.77-1.87-4.04-2.8-6.8-2.8s-5.04.93-6.84,2.8-2.69,4.36-2.69,7.5.9,5.63,2.69,7.5,4.08,2.8,6.84,2.8,5.03-.93,6.8-2.8Z"/><path class="cls-1" d="m785.64,365.04c3.08,2.74,4.63,6.87,4.63,12.4v21.21h-10.09v-4.63c-2.03,3.45-5.8,5.18-11.33,5.18-2.86,0-5.33-.48-7.43-1.45-2.1-.97-3.7-2.3-4.8-4.01-1.11-1.7-1.66-3.64-1.66-5.8,0-3.45,1.3-6.17,3.9-8.15,2.6-1.98,6.62-2.97,12.05-2.97h8.57c0-2.35-.71-4.16-2.14-5.42-1.43-1.27-3.57-1.9-6.42-1.9-1.98,0-3.93.31-5.84.93s-3.54,1.46-4.87,2.52l-3.87-7.53c2.03-1.43,4.46-2.53,7.29-3.32,2.83-.78,5.74-1.17,8.74-1.17,5.76,0,10.18,1.37,13.26,4.11Zm-9.19,25.63c1.43-.85,2.44-2.11,3.04-3.76v-3.8h-7.39c-4.42,0-6.63,1.45-6.63,4.35,0,1.38.54,2.48,1.62,3.28,1.08.81,2.57,1.21,4.46,1.21s3.48-.43,4.9-1.28Z"/><path class="cls-1" d="m807.71,396.75c-3.16-1.63-5.62-3.9-7.39-6.8-1.77-2.9-2.66-6.19-2.66-9.88s.89-6.98,2.66-9.88c1.77-2.9,4.24-5.17,7.39-6.8,3.15-1.63,6.71-2.45,10.67-2.45s7.33.82,10.26,2.45c2.92,1.63,5.05,3.97,6.39,7.01l-8.36,4.49c-1.93-3.41-4.72-5.11-8.36-5.11-2.81,0-5.14.92-6.98,2.76-1.84,1.84-2.76,4.35-2.76,7.53s.92,5.69,2.76,7.53c1.84,1.84,4.17,2.76,6.98,2.76,3.68,0,6.47-1.7,8.36-5.11l8.36,4.56c-1.34,2.95-3.47,5.25-6.39,6.91-2.92,1.66-6.34,2.49-10.26,2.49s-7.52-.82-10.67-2.45Z"/><path class="cls-1" d="m874.71,365.07c2.83,2.76,4.25,6.86,4.25,12.3v21.28h-10.78v-19.62c0-2.95-.65-5.15-1.93-6.6-1.29-1.45-3.16-2.18-5.6-2.18-2.72,0-4.88.84-6.49,2.52-1.61,1.68-2.42,4.18-2.42,7.5v18.38h-10.78v-51.26h10.78v17.96c1.43-1.43,3.15-2.52,5.18-3.28s4.24-1.14,6.63-1.14c4.6,0,8.32,1.38,11.16,4.14Z"/><path class="cls-1" d="m889.26,354.57c-1.24-1.15-1.87-2.58-1.87-4.28s.62-3.13,1.87-4.28c1.24-1.15,2.85-1.73,4.84-1.73s3.59.55,4.83,1.66,1.87,2.49,1.87,4.14c0,1.8-.62,3.28-1.87,4.46-1.24,1.17-2.86,1.76-4.83,1.76s-3.59-.58-4.84-1.73Zm-.55,6.91h10.78v37.16h-10.78v-37.16Z"/><path class="cls-1" d="m943.24,365.07c2.83,2.76,4.25,6.86,4.25,12.3v21.28h-10.78v-19.62c0-2.95-.65-5.15-1.93-6.6-1.29-1.45-3.16-2.18-5.6-2.18-2.72,0-4.88.84-6.49,2.52-1.61,1.68-2.42,4.18-2.42,7.5v18.38h-10.78v-37.16h10.29v4.35c1.43-1.57,3.2-2.77,5.32-3.63,2.12-.85,4.44-1.28,6.98-1.28,4.6,0,8.32,1.38,11.16,4.14Z"/><path class="cls-1" d="m995.98,361.48v30.95c0,6.81-1.77,11.88-5.32,15.2-3.55,3.32-8.73,4.97-15.54,4.97-3.59,0-7-.44-10.22-1.31-3.22-.88-5.9-2.14-8.01-3.8l4.28-7.74c1.56,1.29,3.54,2.31,5.94,3.07,2.39.76,4.79,1.14,7.18,1.14,3.73,0,6.48-.84,8.25-2.52,1.77-1.68,2.66-4.22,2.66-7.63v-1.59c-2.81,3.09-6.72,4.63-11.74,4.63-3.41,0-6.53-.75-9.36-2.25-2.83-1.5-5.08-3.6-6.74-6.32-1.66-2.72-2.49-5.85-2.49-9.39s.83-6.68,2.49-9.39c1.66-2.72,3.9-4.82,6.74-6.32,2.83-1.5,5.95-2.25,9.36-2.25,5.39,0,9.49,1.77,12.3,5.32v-4.77h10.22Zm-13.37,24c1.82-1.68,2.73-3.88,2.73-6.6s-.91-4.92-2.73-6.6c-1.82-1.68-4.16-2.52-7.01-2.52s-5.21.84-7.05,2.52c-1.84,1.68-2.76,3.88-2.76,6.6s.92,4.92,2.76,6.6c1.84,1.68,4.19,2.52,7.05,2.52s5.19-.84,7.01-2.52Z"/><path class="cls-2" d="m500.01,197.48c-26.57,51.09-39.64,85.45-81.94,97.56-11.15,4.43-30.43,2.6-43.73-8.52-33.69-28.17-21.04-74.04-5.29-104.97h0s-2.7-1.88-2.7-1.88c-12.01,14.83-21.85,31.75-27.58,50.19-4,13.1-5.69,27.18-2.41,41,7.18,30.68,37.6,49.58,68.21,48.92,50.11-.2,115.73-60.75,121.96-106.4l-17.36-26.96"/><path class="cls-2" d="m527.1,214.6c-3.83,13.54-3.55,27.22.68,40.75,1.24,4.22,3.11,8.49,4.94,12.45,0,0,.04.14.04.14l.02.07s-.02,0-.04,0c-.03-.01,0,.04-.07-.02-.04-.03-.09-.08-.11-.09l.05.08c3.61,5.19,7.3,10.39,11.44,15.06,6.33,7.19,13.85,13.8,23.2,16.48,29.66,7.92,51.54-23.64,61.98-46.46h0c-2.74-20.37-5.96-41.42-22.18-54.48-4.25-3.32-9.2-5.98-14.36-7.5-4.76-1.41-9.89-1.72-14.78-1.26-16.81,1.12-42.37,5.71-50.14,22.36l-.68,2.42Zm110.76,38.59l-.08.59-.03.19-.09.19c-7.75,16.75-18.16,32.35-32.16,44.55-29.71,25.88-61.47,17.61-88.33-7.4-10.71-9.39-17.88-22.25-22.01-35.77-5.19-17-4.05-35.53,2.01-52.15,3.96-10.4,12.21-18.55,21.76-23.88,12.49-6.89,27.04-8.86,41.09-8.35,6.97.19,13.83,1.12,20.67,2.28,5.78,1.11,11.52,3.04,16.7,5.88,25.34,13.97,37.26,46.54,40.45,73.87h0Z"/><path class="cls-2" d="m872.18,256.92c-.02.37.04.92.02.71-.06-.75-.2-2.06-.3-2.83-2.64-20.59-14.5-46.38-33.14-56.36-4.66-2.51-9.74-3.99-14.96-4.57-5.88-.6-11.95-1.01-17.78-.76-13.86.47-28.66,3.96-37.72,14.37-2.04,2.39-4.07,5.43-4.77,8.29,0,0-.72,2.74-.72,2.74-4.38,18.44-2.83,38.79,7.59,55.04.97,1.59,2.23,3.23,3.1,4.4,1.09,1.13,2.22,2.46,3.31,3.56,15.06,15.83,34.82,27.22,56.03,16.35,15.72-7.98,27.27-22.8,36.56-37.67,1.13-1.61,2.33-3.33,3.18-5.08l-.41,1.4c-.02.13-.02.27,0,.41h0Zm12.02.43c.02.56-.17,1.17-.21,1.73,0,0-.32.79-.32.79-1.68,4.28-3.08,8.58-5.35,12.59-6.47,12.24-14.07,23.44-24.45,33.15-32.76,30.35-69.69,19.38-99.43-8.7-12.19-12.34-20.46-28.34-23.65-45.42-.59-3.57-1.03-8.01-1.12-11.62-.11-3.85-.04-7.8.61-11.61,1.01-7.39,3.22-14.76,5.97-21.68,9.04-22.29,33.08-34.11,55.92-35.22,9.54-.62,18.93.23,28.2,1.82,9.77,1.58,19.52,4.53,27.67,10.26,23.46,15.99,31.55,44.92,35.9,71.34.12,1.02.26,1.39.26,2.57h0Z"/><path class="cls-1" d="m404.94,179.65c27.23,1.82,53.63-20.41,57.22-46.83.46-2.72.78-7.56,1.06-10.37,2.09-19.79,9.02-39.27,20.9-55.25,4.68-6.32,9.95-12.16,16.15-17.04.07-.1-.77,1.4-.75,1.38-.77-.36-1.4.07-1.67.62-.6,1.26.36,2.48,1.74,2.54.47.03.98-.07,1.36-.37-.17.04-.51.16-.75.24-13.02,4.34-26.22,8.01-39.98,9.43,3.39-3.32,6.96-6.26,10.57-9.1,7.19-5.59,14.73-10.6,22.5-15.27,2.05-1.29,4.59-1.9,7.02-1.81,8.57.07,15.27,10.65,9.62,17.58-.01.02-.77,1.41-.78,1.42-9.33,22.89-20.47,44.53-25.46,68.73-2.89,21.49-14,40.34-32.86,50.62-13.99,7.5-31.28,10.33-45.87,3.46h0Z"/><path class="cls-1" d="m365.89,161.79c-17.02-7.72-24.41-29.07-22.85-47.01,1.15-16.34,8.28-32.07,19.44-44.09,1.26-1.22,2.74-2.84,4.09-3.95,23.32-20.34,47.56-39.95,72.07-58.87,14.6-11.14,34.49,2.03,30.49,19.79-4.71,10.19-8.84,20.69-11.72,31.53-3.75,13.45-5.58,27.39-5.33,41.35.05,3.8.34,9.1-.21,12.85-1.73,17.48-10.55,34.3-24.59,44.91-12.8,9.83-30.79,15.52-46.16,9.83,7.78-.17,14.94-2.44,21.18-5.92,17.78-9.69,29.7-30.09,28.46-49.74-.38-7.41-2.22-14.91-2.32-22.38-.77-16.56,1.52-33.2,6.23-49.07,2.27-7.87,5.17-15.53,8.49-22.98,0,0-1.1,3.82-1.1,3.82-1.08,7.2,7.32,12.43,13.32,8.09-23.61,18.02-50.61,37.55-76.21,54.74-22.91,16.94-34.63,54.19-13.29,77.08h0Z"/><path class="cls-1" d="m472.49,60.1c12.55-1.56,13.47-17.78,5.21-24.66-7.62-7.62-23.73-5.15-24.06,7.53,12.97-2.36,19.5,3.05,18.85,17.14Z"/><path class="cls-2" d="m873.72,239.7l12.42-2c3.74,23.71,11.91,49.3,35.46,59.78,18.28,7.4,39.13,4.33,53.79-8,8.88-7.34,15.61-13.09,21.62-22.98.27.13,4.1,1.43,4.36,1.56-13.06,25.42-36.56,47.91-66.95,46.7-18.09-.23-32.98-13.32-42.05-27.87,0,0-17.34-24.48-18.65-46.44"/><path class="cls-2" d="m886.14,177.41c1.7,1.73,2.22,4.28,1.64,6.64-.92,3.74-1.66,7.53-2.19,11.36-1.84,13.32-1.77,26.87.16,40.14.13.84.28,1.77.43,2.45l-11.9,1.54c-.14-5.43-.02-10.93.38-16.43l-5.82.75c-.02-3.1.13-6.2.45-9.28-2.8-1.75-5.49-3.67-8.24-5.52,2.79-10.8,7.68-21.03,14.14-30.14,1.46-2.06,3.79-3.45,6.32-3.42,1.54.01,3.22.47,4.64,1.92Z"/><path class="cls-2" d="m351.67,3.18c3.55,19.14-1.71,39.43-13.72,54.8-9.1,11.58-21.48,19.97-34.77,25.84-17.71,8.05-38.11,12.71-57.56,7.47-20.29-5.44-38.3-21.48-43.34-42.3-2.54-11.13,3.22-21.35,14.96-23.02,15.82-2.35,30.96,6.84,40.69,18.32,18.71,22.33,30,52.46,36.99,80.31,9.21,31.44,8.58,65.88-2.46,96.79-13.22,36.77-39.45,69.51-74.88,86.9-31.06,15.27-69.7,13.54-94.43-12.75-19.28-19.03-30.33-44.84-35.15-71.03-11.32-62,3.54-125.71,17.63-183.78,1.05-5.53,2.57-11.44,1.64-16.81-5.34-17.73-32.71-5.66-43.23,1.05-10.39,6.6-19.82,16.52-24.99,27.72-2.7,5.91-3.65,12.13-4.67,18.67,0,0-6.32-.85-6.32-.85.6-6.8,1.3-14.13,3.86-20.71,5.38-13.58,14.93-24.6,26.64-33.1,12.17-8.1,26.57-15.57,41.7-13.29,14.6,2.48,22.02,15.27,20.37,29.27-.55,7.17-1.93,13.97-3.33,20.83-4.1,20.96-8.22,41.56-10.82,62.62-6.53,55.41-9.23,128.31,36.64,167.63,25.58,20.59,61.44,9.45,84.32-10.1,31.87-26.41,51.16-67.51,49.63-109-.38-11.5-2.27-22.85-5.43-33.96,0,0-.81-3.43-.81-3.43-5.16-20.6-10.48-42.06-20.9-60.53-6.6-11.31-17.25-24.81-30.94-22.81-.11.04.07-.04.23-.26.19-.2.27-.47.25-.45-.41,1.57.6,5.02,1.5,7.08,2.16,5.14,5.43,9.85,9.46,13.79,16.29,16.21,40.44,16.26,61.07,8.45,13.79-4.67,27.58-11.16,37.37-22.16,9.93-10.61,15.59-25.21,16.17-39.78.12-2.04.07-4.18-.08-6.18,0,0,6.71-1.2,6.71-1.2h0Z"/><path class="cls-2" d="m633.28,264.05c-5.69-28.73-6.88-58.48-6.16-87.73.31-17.5-.13-41.54,1.65-58.72,1.67-19.39,5.39-39.29,9.61-58.31,2.28-9.27,3.91-18.85,8.43-27.58,1.27-2.22,3.15-4.22,5.54-5.25,1.16-.5,2.56-.79,3.83-.81,0,0-1.12.07-1.12.07,3.36-.41,6.77-.02,9.95,1.17,10.7,4.36,16.27,15.66,19.01,25.57,1.1,3.93,1.62,8.42,2.18,12.47.7,6.62,1.1,13.4,1,20.04-.19,15.64-2.9,31.26-6.18,46.45-2.04,8.66-4.58,21.22-6.98,29.69-9.24,34.27-21.74,67.68-36.23,100.02,0,0-4.36-1.44-4.36-1.44,4.36-19.75,9.33-39.25,13.94-58.73,4.47-19.18,9-39.04,12.27-58.39,4.67-27.33,10.51-52.42,7.41-79.22-.69-6.85-2.63-15.4-8.09-19.77-.79-.48-1.08-.54-1.68-.54,0,0-4.92-.02-4.92-.02,1.33-.03,4.4.28,5.67-.12,1.29-.35,2.56-.98,3.45-1.99.08-.07.15-.16.21-.25.03-.06.04-.06.03-.05-.01.03,0-.03-.04.04-1.52,2.66-2.48,5.89-3.56,9.01-2.54,7.64-5.65,19.58-7.88,27.53-6.27,23.09-10.66,46.46-11.98,70.42-.76,16.59-2.61,41.56-2.95,57.98-.27,14.42.21,28.84,1.76,43.18.52,4.78,1.15,9.54,1.88,14.29l-5.68,1h0Z"/><path class="cls-2" d="m639.04,242.48c4.37,30.46,20.48,72.13,58.39,56.78,27.05-11.3,35.88-43.58,38.89-70.44.39-3.87.65-7.74.7-11.61,0-.21,0-.51,0-.59,0,0,24.31.7,24.31.7-.17,2.49-.46,5.12-.79,7.58-4.52,31-15.7,65.37-43.44,83.29-13.35,8.25-29.98,12.02-45.39,7.74-20.27-5.65-31.79-26.29-36.86-44.98-2.54-9.16-4.14-18.29-4.75-27.79,0,0,8.95-.68,8.95-.68h0Z"/></svg>