<?xml version="1.0" encoding="UTF-8"?><svg id="Layer_1" xmlns="http://www.w3.org/2000/svg" viewBox="0 0 377.94 420"><defs><style>.cls-1{fill:#abb368;}</style></defs><path class="cls-1" d="m351.67,3.18c3.55,19.14-1.71,39.43-13.72,54.8-9.1,11.58-21.48,19.97-34.77,25.84-17.71,8.05-38.11,12.71-57.56,7.47-20.29-5.44-38.3-21.48-43.34-42.3-2.54-11.13,3.22-21.35,14.96-23.02,15.82-2.35,30.96,6.84,40.69,18.32,18.71,22.33,30,52.46,36.99,80.31,9.21,31.44,8.58,65.88-2.46,96.79-13.22,36.77-39.45,69.51-74.88,86.9-31.06,15.27-69.7,13.54-94.43-12.75-19.28-19.03-30.33-44.84-35.15-71.03-11.32-62,3.54-125.71,17.63-183.78,1.05-5.53,2.57-11.44,1.64-16.81-5.34-17.73-32.71-5.66-43.23,1.05-10.39,6.6-19.82,16.52-24.99,27.72-2.7,5.91-3.65,12.13-4.67,18.67,0,0-6.32-.85-6.32-.85.6-6.8,1.3-14.13,3.86-20.71,5.38-13.58,14.93-24.6,26.64-33.1,12.17-8.1,26.57-15.57,41.7-13.29,14.6,2.48,22.02,15.27,20.37,29.27-.55,7.17-1.93,13.97-3.33,20.83-4.1,20.96-8.22,41.56-10.82,62.62-6.53,55.41-9.23,128.31,36.64,167.63,25.58,20.59,61.44,9.45,84.32-10.1,31.87-26.41,51.16-67.51,49.63-109-.38-11.5-2.27-22.85-5.43-33.96,0,0-.81-3.43-.81-3.43-5.16-20.6-10.48-42.06-20.9-60.53-6.6-11.31-17.25-24.81-30.94-22.81-.11.04.07-.04.23-.26.19-.2.27-.47.25-.45-.41,1.57.6,5.02,1.5,7.08,2.16,5.14,5.43,9.85,9.46,13.79,16.29,16.21,40.44,16.26,61.07,8.45,13.79-4.67,27.58-11.16,37.37-22.16,9.93-10.61,15.59-25.21,16.17-39.78.12-2.04.07-4.18-.08-6.18,0,0,6.71-1.2,6.71-1.2h0Z"/></svg>