<?xml version="1.0" encoding="UTF-8"?><svg id="Layer_1" xmlns="http://www.w3.org/2000/svg" viewBox="0 0 1024 400"><defs><style>.cls-1{fill:#e85d5d;}.cls-2{fill:#abb368;}</style></defs><path class="cls-2" d="m369.05,243.8c-15.75,30.94-33.37,84.15,5.29,104.97,10.54,5.75,23.43,6.7,34.57,2.27,6.93-2.59,12.9-6.97,19.01-11.01,17.51-11.9,33.57-26.35,49.21-41.4,5.81-5.38,11.4-11.01,17.56-16.14,0,0,2.9,1.54,2.9,1.54-6.23,45.65-42.92,97.8-93.03,98-30.61.66-61.03-18.25-68.21-48.92-3.28-13.82-1.59-27.9,2.41-41,5.73-18.44,15.56-35.37,27.58-50.19,0,0,2.7,1.88,2.7,1.88h0Z"/><path class="cls-2" d="m635.61,317.84c-6.95-27.99-9.04-57.34-9.16-86.15-.31-19.26-1.28-38.77.24-58.1,1.26-17.08,3.96-34.06,7.44-50.81,1.45-7.08,2.94-14.53,4.84-21.64,1.14-4.12,2.2-8.16,4.23-12.4,1.35-2.61,2.48-4.46,5.14-6.62,2.43-1.9,5.51-2.99,8.61-3,0,0-1.66.11-1.66.11,5.11-.84,11.09.4,15.47,2.93,7.52,4.36,11.66,10.44,15.16,17.36,2.5,5.17,4.15,10.44,5.17,16.02.2,1.22.88,4.77,1.09,6.05,1.43,9.42,2.11,19.1,1.83,28.61-.36,17.89-4.28,36.41-8.56,53.34-2.35,9.87-5.4,19.74-8.65,29.33-8.18,23.87-18.45,47-30.74,69.02-2.47,4.41-5.01,8.78-7.77,13.08,0,0-3.12-1.03-3.12-1.03.35-5.1.91-10.12,1.52-15.12,3.99-31.94,10.89-66.32,15.8-98.13,3.49-25.75,10.52-50.17,9.83-76.04-.2-2.82-.24-6.23-.73-9.01-.53-3.56-2.11-8.06-4.19-10.52,0-.05.18-.01.45,0,.27.02.6-.02.77-.1,0,0-1.66.11-1.66.11.53,0,1.07-.03,1.59-.11,2.62-.26,6-2.07,7.35-4.11,0,0,.11-.16.11-.16l.07-.13s.05-.1.05-.1c0-.03-.03,0-.08.08-.22.31-.61,1.09-.97,1.92-3.32,7.92-5.78,17.29-8.27,25.73-5.84,20.09-10.74,40.57-13.28,61.35-1.66,14.1-2.58,28.27-3.84,42.52-.72,8.14-1.8,20.28-2.2,28.38-.75,14.17-.74,28.38.14,42.55.32,4.73.73,9.46,1.22,14.2,0,0-3.24.57-3.24.57h0Z"/><path class="cls-2" d="m634.57,315.32c-2.74-20.37-11.29-41.42-27.51-54.48-4.25-3.32-9.2-5.98-14.36-7.5-4.76-1.41-9.89-1.72-14.78-1.26-16.81,1.12-42.37,5.71-50.14,22.36-.13.31-.27.77-.38,1.08-.08.28-.22.68-.2.96,0,0,.04.05.04.05.02,0,.07-.05.09-.08.08-.14.1-.14.26-.56.05-.13.03-.06.02-.03,0,0-.05.17-.05.17-3.83,13.54-4.02,28.04.21,41.57,1.24,4.22,3.11,8.49,4.94,12.45,0,0,.04.14.04.14,0,0,.02.07.02.07,0,0-.02,0-.04,0-.03-.01,0,.04-.07-.02-.04-.03-.09-.08-.11-.09,0,0,.05.08.05.08,3.61,5.19,7.3,10.39,11.44,15.06,6.33,7.19,13.85,13.8,23.2,16.48,29.66,7.92,56.87-23.64,67.31-46.46h0Zm3.29.12l-.08.59-.03.19-.09.19c-7.75,16.75-18.16,32.35-32.16,44.55-29.71,25.88-61.47,17.61-88.33-7.4-10.71-9.39-17.88-22.25-22.01-35.77-5.19-17-4.05-35.53,2.01-52.15,3.96-10.4,12.21-18.55,21.76-23.88,12.49-6.89,27.04-8.86,41.09-8.35,6.97.19,13.83,1.12,20.67,2.28,5.78,1.11,11.52,3.04,16.7,5.88,25.34,13.97,37.26,46.54,40.45,73.87h0Z"/><path class="cls-2" d="m405.72,16.07c-20.07,23.86-44.97,43.35-72.03,58.71-36.56,20.57-78.18,32.39-120.18,33.15-1.8.05-4.94.09-6.68.13-.5-.02.58.1,1.83-.21,6.73-1.67,7.29-11.16.84-13.64-.12-.05.11.04.15.05,0,0,.5.18.5.18,0,0,1,.36,1,.36,51.45,19.58,81.87,71.69,89.39,124.19,2.62,42.22-10.62,85.87-39.01,117.66-11.3,12.69-24.93,23.56-39.89,31.63-26.83,14.16-60.24,14.91-87.69,1.83-36.56-17.15-53.72-51.93-58.17-90.47-1.9-15.97-1.64-32.15-.18-48.11-.08.8.11-1.27.19-1.65,0,0,.17-.95.17-.95,4.44-23.94,9.11-47.9,14.03-71.74,1.12-5.38,3.73-18.08,4.88-23.31-.03.29.14-.97-.05.58-.07,2.73-.01.69-.03,1.27,0-.04,0-.08,0-.14,0,0,0-.34,0-.34-.09-7.02-1.21-18.82-6.83-22.92-2.11-1.38-5.82-.92-8.33-.15-4.46,1.16-9.6,4.11-14.02,6.88-4.47,3.48-15.28,12.08-21.69,17-8.13,6.32-16.35,12.53-24.67,18.65,0,0-2.25-2.4-2.25-2.4,6.65-7.89,13.41-15.68,20.25-23.37,5.99-6.83,12.6-14.04,18.71-20.8-.39.32.7-.63.67-.6,0,0,.2-.17.2-.17,0,0,.39-.34.39-.34l1.58-1.36c13.32-11.64,31.76-19.5,46.55-4.88,8.84,9.48,12.03,21.93,13.36,34.03-.01.74.06-1.14-.02,1.75,0,0-.19,1.78-.19,1.78-3.1,30.48-6.71,61.36-10.58,91.73,0,0-.49,3.81-.49,3.81,0,0-.12.95-.12.95.04-.22.23-2.14.14-1.17v.23c-.15,4.19-.21,8.93-.17,13.12.54,27,4.3,57.73,22.12,78.78,20.97,24.42,57.65,30.31,85.5,14.17,26.54-14.87,46.28-39.98,55.81-68.81,5.33-15.92,8.26-33.52,7.85-50.03-5.07-45.95-28.13-91.92-73.07-111.99-.42-.18-1.08-.45-1.5-.62-7.3-2.78-6.71-13.54.94-15.45,2.12-.42,2.17-.19,3.01-.22,1.33,0,4.26.15,5.59.16,4.98.25,9.95.02,14.93-.02,60.54-2.07,119.15-27.92,163.94-68.34,3.74-3.42,7.44-6.98,10.8-10.67,0,0,2.53,2.1,2.53,2.1h0Z"/><path class="cls-2" d="m636.19,304.82c4.76,10.65,6.33,23.45,13.62,32.52,1.34,1.59,2.79,3.11,4.33,4.5,8.18,7.36,18.87,11.68,29.75,12.23,6.64-.11,13.14-5.7,17.67-10.47,1.98-1.96,3.53-4.11,5.3-5.85.03-.07,1.17-3.76,1.24-3.98,6.85-21.5,14.24-42.53,23.9-63.1,3.5-6.98,7.1-14.97,13.28-20.47,2.23-1.9,4.49-3.16,6.72-4.4,0,0,2.33,2.32,2.33,2.32-2.54,4.29-4.39,7.96-4.99,12.76-2.01,14.28-2.81,29.24-4.75,43.71-1.67,13.52-3.72,27.01-6.15,40.41-.91,5.88-3.65,12.02-7.05,16.5-11.23,15.2-33.74,22.15-51.92,18.25-18.46-4.61-34.95-17.52-42.52-35.06-3.38-7.65-3.85-16.45-3.85-24.25-.04-4.99.18-9.88-.1-14.83,0,0,3.19-.79,3.19-.79h0Z"/><path class="cls-2" d="m876.11,315.15c-.03.39.04.97.02.76-.07-.8-.21-2.18-.32-3-2.8-21.83-15.37-49.17-35.13-59.75-4.94-2.67-10.33-4.23-15.86-4.84-6.24-.64-12.66-1.08-18.85-.81-14.69.5-30.38,4.2-39.99,15.24-2.16,2.54-4.32,5.76-5.05,8.78,0,0-.76,2.91-.76,2.91-4.64,19.55-3,41.12,8.05,58.35,1.03,1.68,2.36,3.43,3.28,4.67,1.16,1.2,2.35,2.61,3.51,3.77,15.96,16.78,36.92,28.86,59.39,17.34,16.67-8.46,28.91-24.17,38.76-39.94,1.2-1.71,2.47-3.53,3.37-5.38,0,0-.43,1.48-.43,1.48-.02.14-.02.29,0,.43h0Zm12.74.46c.02.6-.18,1.24-.23,1.84,0,0-.34.84-.34.84-1.78,4.54-3.27,9.1-5.67,13.34-6.86,12.98-14.91,24.85-25.92,35.14-34.73,32.18-73.88,20.54-105.41-9.22-12.93-13.09-21.69-30.04-25.07-48.15-.63-3.79-1.09-8.5-1.19-12.32-.12-4.08-.05-8.27.64-12.31,1.07-7.84,3.41-15.65,6.33-22.98,9.59-23.63,35.07-36.16,59.28-37.34,10.11-.66,20.07.24,29.9,1.93,10.36,1.68,20.7,4.81,29.33,10.87,24.87,16.96,33.45,47.62,38.06,75.63.13,1.08.28,1.47.28,2.73h0Z"/><path class="cls-1" d="m404.94,241.9c27.23,1.82,53.63-20.41,57.22-46.83.46-2.72.78-7.56,1.06-10.37,2.09-19.79,9.02-39.27,20.9-55.25,4.68-6.32,9.95-12.16,16.15-17.04.07-.1-.77,1.4-.75,1.38-.77-.36-1.4.07-1.67.62-.6,1.26.36,2.48,1.74,2.54.47.03.98-.07,1.36-.37-.17.04-.51.16-.75.24-13.02,4.34-26.22,8.01-39.98,9.43,3.39-3.32,6.96-6.26,10.57-9.1,7.19-5.59,14.73-10.6,22.5-15.27,2.05-1.29,4.59-1.9,7.02-1.81,8.57.07,15.27,10.65,9.62,17.58-.01.02-.77,1.41-.78,1.42-9.33,22.89-20.47,44.53-25.46,68.73-2.89,21.49-14,40.34-32.86,50.62-13.99,7.5-31.28,10.33-45.87,3.46h0Z"/><path class="cls-1" d="m365.89,224.04c-17.02-7.72-24.41-29.07-22.85-47.01,1.15-16.34,8.28-32.07,19.44-44.09,1.26-1.22,2.74-2.84,4.09-3.95,23.32-20.34,47.56-39.95,72.07-58.87,14.6-11.14,34.49,2.03,30.49,19.79-4.71,10.19-8.84,20.69-11.72,31.53-3.75,13.45-5.58,27.39-5.33,41.35.05,3.8.34,9.1-.21,12.85-1.73,17.48-10.55,34.3-24.59,44.91-12.8,9.83-30.79,15.52-46.16,9.83,7.78-.17,14.94-2.44,21.18-5.92,17.78-9.69,29.7-30.09,28.46-49.74-.38-7.41-2.22-14.91-2.32-22.38-.77-16.56,1.52-33.2,6.23-49.07,2.27-7.87,5.17-15.53,8.49-22.98,0,0-1.1,3.82-1.1,3.82-1.08,7.2,7.32,12.43,13.32,8.09-23.61,18.02-50.61,37.55-76.21,54.74-22.91,16.94-34.63,54.19-13.29,77.08h0Z"/><path class="cls-1" d="m472.49,122.35c12.55-1.56,13.47-17.78,5.21-24.66-7.62-7.62-23.73-5.15-24.06,7.53,12.97-2.36,19.5,3.05,18.85,17.14Z"/><path class="cls-2" d="m886.14,299.94c3.74,23.71,14.3,57.63,37.84,68.11,18.28,7.4,39.64.65,54.29-11.68,9.28-7.67,16.96-17.41,23.11-27.8,2.06-3.5,3.98-7.1,5.61-10.83-1.4,3.83-3.09,7.56-4.93,11.21-12.91,25.98-36.72,49.3-67.65,48.07-18.09-.23-32.98-13.32-42.05-27.87-8.57-13.53-14.14-28.5-17.94-43.95-.18-.88-.55-2.29-.71-3.24,0,0,12.42-2,12.42-2h0Z"/></svg>