<?xml version="1.0" encoding="UTF-8"?><svg id="Layer_1" xmlns="http://www.w3.org/2000/svg" viewBox="0 0 30 30"><defs><style>.cls-1{fill:#abb368;}</style></defs><path class="cls-1" d="m28.5,29.98c-2.8,0-5.5,0-8.19,0-.74,0-1.48-.04-2.21.01-.76.05-.96-.26-.96-.98.02-2.85-.05-5.7,0-8.54.01-.87-.29-1.1-1.09-1.05-1.01.05-2.02.01-3.17.01,0,.95,0,1.78,0,2.62,0,2.32-.01,4.64-.02,6.96,0,.45.1.97-.62.97-3.54,0-7.09,0-10.69,0-.02-.38-.05-.69-.05-.99,0-5.98,0-11.95-.01-17.93,0-.77.18-1.32.83-1.8C6.28,6.31,10.24,3.34,14.19.34c.62-.47,1.02-.44,1.63.03,3.92,2.97,7.86,5.91,11.83,8.82.63.46.89.94.88,1.74-.04,5.98-.02,11.95-.02,17.93v1.12Zm-2.53-2.58c0-5.4.01-10.71-.03-16.01,0-.33-.35-.75-.65-.98-3.19-2.42-6.41-4.8-9.6-7.23-.58-.44-.93-.43-1.52.03-3.05,2.37-6.13,4.71-9.27,6.97-.7.5-.91.99-.9,1.8.03,4.39.02,8.79.02,13.18,0,.73,0,1.46,0,2.19h6.34c0-3.19.02-6.28-.02-9.37-.01-.81.21-1.11,1.07-1.09,2.39.06,4.78.05,7.17,0,.79-.01,1.05.24,1.04,1.02-.03,2.39-.01,4.78-.02,7.17,0,.76,0,1.52,0,2.31h6.36Z"/></svg>