<?xml version="1.0" encoding="UTF-8"?><svg id="Layer_1" xmlns="http://www.w3.org/2000/svg" viewBox="0 0 30 30"><defs><style>.cls-1{fill:#abb368;}</style></defs><path class="cls-1" d="m14.92,27c-3.9,0-7.81,0-11.71,0-2.23,0-3.18-.93-3.19-3.19-.02-3.87,0-7.75,0-11.62,0-1.94,0-3.87,0-5.81,0-2.38.96-3.36,3.35-3.37,3.34-.02,6.69,0,10.03,0,4.47,0,8.93,0,13.4,0,1.82,0,2.76.65,3.12,2.09.08.33.09.68.09,1.02,0,5.94,0,11.87,0,17.81,0,2.18-.89,3.06-3.08,3.07-4,0-8,0-12,0ZM2.32,7.33v17.38h25.36V7.31c-.19.09-.3.13-.39.2-3.85,2.55-7.71,5.09-11.56,7.64-.36.24-.66.48-1.16.14-2.88-1.93-5.79-3.81-8.69-5.7-1.14-.74-2.29-1.46-3.56-2.26Zm.15-2.04c.16.2.21.29.28.34,3.93,2.54,7.85,5.08,11.79,7.58.26.16.79.12,1.07-.05,1.05-.6,2.06-1.29,3.08-1.95,2.82-1.83,5.65-3.66,8.47-5.49.16-.1.31-.21.63-.43H2.47Z"/></svg>