<?xml version="1.0" encoding="UTF-8"?><svg id="Layer_1" xmlns="http://www.w3.org/2000/svg" viewBox="0 0 142.86 100"><defs><style>.cls-1{fill:#f0f0f0;}.cls-2{fill:#ffda44;}.cls-3{fill:#6da544;}.cls-4{fill:#0052b4;}</style></defs><rect class="cls-3" width="142.86" height="100"/><path class="cls-2" d="M128.63,48.62c-10.29-7.59-20.59-15.17-30.88-22.75-8.28-6.1-16.56-12.2-24.83-18.32-.83-.61-1.47-1.01-2.54-.22-18.84,13.95-37.72,27.84-56.59,41.76-.38,.28-.71,.64-1.16,1.06,.66,.53,1.15,.94,1.66,1.32,18.65,13.75,37.3,27.48,55.93,41.25,1.02,.75,1.69,.67,2.66-.04,18.77-13.88,37.57-27.73,56.36-41.59,.36-.26,.69-.57,1.21-1.02-.75-.6-1.27-1.04-1.82-1.45Z"/><g><path class="cls-4" d="M46.87,50.52c.24,13.43,11.18,24.24,24.67,24.24,8.37,0,15.76-4.18,20.22-10.55-19.48-22.72-44.13-13.97-44.89-13.69Z"/><path class="cls-4" d="M95.79,54.7c.28-1.5,.45-3.04,.45-4.63,0-13.64-11.05-24.69-24.69-24.69-10.2,0-18.96,6.19-22.72,15.02,.1-.04,26.31-9.78,46.96,14.3Z"/></g><path class="cls-1" d="M48.82,40.4c-1.27,2.97-1.97,6.24-1.97,9.67,0,.15,.02,.3,.02,.45,.76-.28,25.41-9.03,44.89,13.69,1.96-2.8,3.36-6.02,4.02-9.51-20.65-24.08-46.87-14.33-46.96-14.3Z"/></svg>